<svg width="500" height="114" viewBox="0 0 500 114" fill="none" xmlns="http://www.w3.org/2000/svg">
<path d="M168.811 32.2695H145.623C145.623 32.6813 145.623 33.0931 145.768 33.7096C147.169 34.0357 148.426 34.1571 149.682 34.2785L149.682 34.2785C150.133 34.3332 150.818 34.4824 151.269 34.5371C152.093 34.5976 152.617 34.5976 153.14 34.5976L153.149 34.7891L151.851 34.8968L149.64 35.0829L131.864 36.3726C131.776 36.4464 131.676 36.4915 131.497 36.56C131.721 37.8482 132.009 39.0842 132.248 40.4389C132.248 40.4389 133.311 40.6309 134.427 40.9299C135.543 41.2288 136.286 41.6736 136.286 41.6736L126.564 42.4854C126.156 42.5453 125.656 42.6613 125.396 42.9374C123.929 44.493 122.522 46.1053 120.988 47.8177L124.257 48.3753C118.715 48.515 116.093 52.8923 112.542 56.3258L114.897 56.9615C111.305 57.1239 106.909 61.6855 106.603 61.8621C106.297 62.0387 104.167 63.8024 104.167 63.8024L111.064 64.9304L111.051 65.2637C108.431 65.631 105.821 66.1643 103.189 66.3126C101.121 66.4291 99.5688 67.272 98.1187 68.5938C97.3981 69.2507 96.5757 69.7959 95.2953 70.7785L109.341 71.8442L109.378 72.0602C108.56 72.1669 107.744 72.3014 106.923 72.3756C102.052 72.8154 97.1758 73.1976 92.3126 73.7063C91.2614 73.8162 90.1472 74.1872 89.2474 74.7398C83.8115 78.0789 78.3231 81.2964 72.2548 83.3887C71.8495 83.5284 71.3808 83.6795 71.1076 83.9775C67.2989 88.1318 62.2107 90.1236 57.2112 92.2721C57.0713 92.3323 56.9794 92.5041 56.6953 92.8016C61.0295 92.8016 65.1547 92.8769 69.272 92.7299C69.986 92.7044 70.8117 91.8538 71.3395 91.1888C75.8687 85.4812 81.1261 80.7224 87.9352 77.8358C92.2702 75.998 96.5845 75.694 101.149 77.0326C103.914 77.8435 106.849 78.073 109.734 78.792L106.341 79.2009C108.132 81.5725 111.318 83.0823 116.396 83.7776L112.993 84.579C114.131 85.7512 115.136 86.7874 116.324 87.9432C116.667 88.1029 116.827 88.143 116.988 88.1829L116.988 88.183C117.41 88.2073 117.832 88.2317 118.365 88.3213C118.816 88.4114 119.157 88.4361 119.918 88.4912L119.918 88.4912C119.287 88.7473 119.045 88.8453 118.663 88.9455C118.321 89.0244 118.12 89.1013 117.798 89.3171C118.513 91.6878 120.448 91.364 122.223 91.4121H126.225L126.229 92.1369C125.015 92.286 123.802 92.4352 122.417 92.5666C122.246 92.549 122.217 92.5893 122.217 92.5893C122.217 92.5893 122.208 92.7403 122.371 92.8527C125.643 92.9565 128.751 92.9478 131.859 92.9392C131.859 92.9392 131.855 92.7598 131.742 92.6005C127.63 90.7893 123.781 88.8883 120.521 85.9642C112.026 78.343 110.595 60.5134 121.87 52.0757C128.687 46.9741 136.369 43.8208 144.357 41.2253C150.987 39.0707 157.857 38.1825 164.747 37.4422C168.117 37.0802 169.332 35.6128 168.811 32.2695Z" fill="white"/>
<path d="M97.9503 48.4532C89.8691 56.5344 85.3592 58.6701 79.0369 63.7451C77.7384 64.7875 76.3183 65.6784 75.1662 66.4898C72.9386 64.2494 70.8026 62.101 68.6399 59.9259C71.7216 59.5213 74.9309 59.0999 78.1401 58.6786C78.16 58.5121 78.1799 58.3456 78.1998 58.1791C74.8282 57.6908 71.4565 57.2025 68.0096 56.7034C68.0096 55.5748 68.0096 54.4819 68.0096 53.1556C74.381 52.6256 80.7064 52.0994 87.0318 51.5732C87.0333 51.4801 87.0347 51.3872 87.0362 51.2941C80.7101 50.7946 74.3839 50.2951 68.0039 49.7913C68.0039 48.6102 68.0039 47.5136 68.0039 46.2569C77.2288 45.4585 86.3921 44.6654 95.5553 43.8724C95.5516 43.7576 95.5479 43.6428 95.5441 43.528C86.3976 43.3224 77.251 43.1169 68.0111 42.9092C68.0111 41.6768 68.0111 40.5991 68.0111 39.1863C78.6117 39.1863 89.1183 39.1863 99.625 39.1863C99.631 39.0067 99.637 38.8271 99.643 38.6475C89.1341 37.6777 78.6252 36.7079 68.0127 35.7286C68.0127 34.5122 68.0127 33.3792 68.0127 32.1471C68.6254 32.1117 69.1703 32.0531 69.7153 32.0527C83.5343 32.0421 97.3533 32.0352 111.172 32.0443C111.557 32.0445 111.942 32.2276 112.239 32.5384C107.418 37.9853 106.031 40.3721 97.9503 48.4532Z" fill="white"/>
<path d="M71.6088 105.434L71.6089 105.438H71.6089C72.1546 105.209 72.7004 104.98 73.4314 104.605C74.8237 102.466 76.6587 100.852 76.7104 98.1926C76.7362 96.864 77.4929 95.5497 77.9191 94.2289L79.8115 90.5783L80.2074 90.7555C79.9645 91.9468 79.7217 93.1382 79.4533 94.6268C79.4278 96.5537 79.4278 98.1835 79.4278 99.9435L81.9426 99.314L82.1809 96.1005C82.676 91.2737 84.246 87.0343 88.6611 84.3053C86.5065 88.7594 85.6407 93.4039 86.1845 98.4269C87.2339 98.2814 88.2002 98.1473 89.4583 97.9413C90.0543 94.9633 89.707 91.7806 92.035 88.9233C92.3281 92.0732 92.5461 94.8134 92.7979 97.5197H96.1626L96.8445 95.3508C96.8012 93.1575 96.758 90.9642 96.7262 88.6059C96.729 88.2197 96.7203 87.9986 96.7115 87.7775C96.794 87.8615 96.8764 87.9454 96.981 88.1167C98.7712 90.2908 99.2176 92.819 99.4201 95.7402C99.4231 96.5944 99.4231 97.1382 99.4231 97.8262L103.277 98.0794C103.405 96.6631 103.277 96.8438 103.277 93.711C103.277 90.5783 101.253 84.7364 101.253 84.7364C101.253 84.7364 104.892 87.5479 106.391 91.9367L107.97 98.3331C107.97 98.3331 108.156 99.289 109.457 99.289C110.759 99.289 110.913 98.4929 110.913 98.3331C110.913 98.1734 110.791 90.6707 110.791 90.6707L110.792 90.6725C111.629 92.633 112.465 94.5936 113.374 96.8212C113.956 98.8248 113.493 100.954 115.505 102.094C115.71 102.211 115.797 102.636 115.834 102.93C116.051 104.679 117.204 105.385 118.891 105.771C118.891 104.297 118.752 102.931 118.916 101.602C119.507 96.8218 118.553 92.6093 114.761 89.3344C112.34 87.1439 110.059 84.769 107.471 82.7973C99.4357 76.6749 92.0821 76.5673 83.7477 82.246C79.3696 85.229 75.6265 88.896 72.4043 93.0827C71.9255 93.7049 71.6837 94.6252 71.6227 95.4296C71.492 97.151 71.5514 98.8869 71.5273 100.929C71.5507 102.639 71.5798 104.037 71.6088 105.434Z" fill="white"/>
<path d="M23.497 45.4998C33.564 49.0628 43.9155 50.9484 54.7454 50.6056C54.7454 51.7922 54.7454 52.814 54.7454 53.7375C50.7011 53.7375 46.6093 54.0509 42.5813 53.6768C31.9275 52.6875 21.8822 49.5507 12.6151 44.1421C8.37014 41.6646 4.5095 38.6988 1.90825 34.3846C1.34283 33.4468 0.767523 32.5151 0 31.2583C4.53094 32.6016 8.57189 34.0077 12.7145 34.9809C19.5993 36.5982 26.5297 38.0412 33.4782 39.3608C38.9642 40.4027 44.5139 40.5789 50.0188 39.3728C51.5895 39.0287 53.1022 38.4199 54.7712 37.8914C54.7712 39.3749 54.7712 40.7169 54.7712 42.2223C48.4099 43.7378 41.9664 43.6132 35.1934 42.7582C28.1285 41.4518 21.3667 40.1772 15.1828 39.0116C15.7723 39.2103 16.9145 39.6845 18.1013 39.9804C23.7895 41.3985 29.4897 42.7684 35.1857 44.1554C41.6171 45.4312 48.0745 45.7034 54.7379 44.557C54.7379 45.826 54.7379 46.9997 54.7379 48.3413C44.3421 49.023 34.1384 47.9531 23.8485 45.0251C23.1589 44.9655 22.7373 44.9655 22.3158 44.9655C22.3059 45.039 22.2959 45.1126 22.286 45.1861C22.6896 45.2907 23.0933 45.3952 23.497 45.4998Z" fill="white"/>
<path d="M5.71708 30.6016C10.1073 30.7699 14.4962 31.0155 18.888 31.0915C30.3449 31.2898 41.8031 31.414 53.2608 31.5667C53.6853 31.5723 54.1099 31.5674 54.5053 31.5674C55.2699 34.695 55.1416 35.3357 52.3466 36.3721C49.9837 37.2483 47.4506 37.8568 44.9451 38.1079C41.941 38.409 38.8326 38.5726 35.8657 38.1381C30.7524 37.3893 25.6955 36.2117 20.6486 35.0658C15.704 33.9432 10.8015 32.6356 5.77275 31.1532C5.68232 30.7987 5.6997 30.7001 5.71708 30.6016Z" fill="white"/>
<path d="M116.007 25.3159C116.286 25.5923 116.582 25.9613 116.495 26.1208C115.876 27.2549 115.229 28.3822 114.476 29.4297C114.243 29.7542 113.656 29.9875 113.231 29.9876C98.1119 29.9921 82.9927 29.964 67.8734 29.9355C67.825 29.9354 67.7768 29.8627 67.625 29.7406C67.625 28.4268 67.625 27.0256 67.625 25.3115C83.688 25.3115 99.7673 25.3115 116.007 25.3159Z" fill="white"/>
<path d="M63.2553 46.8833C63.4395 44.0405 63.6396 41.1987 63.8032 38.3547C63.9503 35.7981 64.0886 33.24 64.1661 30.6807C64.1965 29.6755 64.3113 28.9508 65.7598 29.4197C65.7598 39.3981 65.7598 49.3877 65.7598 59.555C62.7333 59.3056 59.8644 59.0691 56.9609 58.8298C56.9609 48.9555 56.9609 39.2554 56.9609 29.5236C58.5304 28.8242 58.8487 29.5486 58.8703 30.8512C58.9607 36.2974 59.0895 41.7431 59.1996 47.5113C59.195 49.1451 59.195 50.4565 59.195 51.7678C59.3622 51.7649 59.5295 51.762 59.6967 51.7591C59.6967 50.3534 59.6967 48.9477 59.6967 47.5421C59.8279 44.9614 59.908 42.3768 60.1031 39.801C60.3461 36.5916 60.6586 33.3866 61.0158 30.188C61.0562 29.8258 61.5788 29.5174 61.8777 29.1841C62.1087 29.2523 62.3397 29.3205 62.5706 29.3887C62.5706 35.107 62.5706 40.8252 62.4692 46.8402C62.4317 48.627 62.4957 50.1171 62.5596 51.6073C62.7132 51.5965 62.8668 51.5856 63.0204 51.5748C63.0987 50.011 63.177 48.4471 63.2553 46.8833Z" fill="white"/>
<path d="M53.4034 94.8501C58.6466 94.8501 63.8898 94.8501 69.4561 94.8501C69.4561 97.4553 69.4561 99.893 69.4863 102.503C69.4651 103.711 69.4136 104.747 69.357 105.884C63.0468 105.884 56.8237 105.884 50.1953 105.884C50.5914 105.349 50.7772 104.814 51.0713 104.746C52.9906 104.301 54.9883 104.75 56.9224 103.617C57.9281 103.028 59.6758 103.783 61.0886 103.786C62.1795 103.788 63.271 103.566 64.379 103.068C59.8999 102.591 55.4208 102.115 50.8896 101.633C50.8896 100.837 50.8896 100.231 50.8896 99.5614C55.5398 99.0073 60.1718 98.4555 64.8038 97.9036C64.8026 97.7464 64.8014 97.5893 64.8002 97.4321C60.6356 97.0534 56.471 96.6738 52.3061 96.2966C51.5318 96.2264 50.5186 96.4203 51.0709 94.9494C51.4528 94.8731 51.7335 94.8927 52.2887 94.9126C52.8434 94.8921 53.1234 94.8711 53.4034 94.8501Z" fill="white"/>
<path d="M136.936 94.8501C131.693 94.8501 126.45 94.8501 120.884 94.8501C120.884 97.4553 120.884 99.893 120.854 102.503C120.875 103.711 120.926 104.747 120.983 105.884C127.293 105.884 133.516 105.884 140.145 105.884C139.748 105.349 139.563 104.814 139.269 104.746C137.349 104.301 135.352 104.75 133.417 103.617C132.412 103.028 130.664 103.783 129.251 103.786C128.16 103.788 127.069 103.566 125.961 103.068C130.44 102.591 134.919 102.115 139.45 101.633C139.45 100.837 139.45 100.231 139.45 99.5614C134.8 99.0073 130.168 98.4555 125.536 97.9036C125.537 97.7464 125.538 97.5893 125.54 97.4321C129.704 97.0534 133.869 96.6738 138.034 96.2966C138.808 96.2264 139.821 96.4203 139.269 94.9494C138.887 94.8731 138.606 94.8927 138.051 94.9126C137.496 94.8921 137.216 94.8711 136.936 94.8501Z" fill="white"/>
<path d="M166.68 30.1445C156.469 30.1457 146.432 30.1457 136.102 30.1457C137.004 28.5242 137.757 27.0836 138.611 25.7134C138.78 25.4415 139.336 25.33 139.713 25.3292C149.276 25.3075 158.839 25.31 168.402 25.3148C168.508 25.3149 168.615 25.4012 168.825 25.4923C168.825 26.9336 168.825 28.4159 168.825 30.1433C168.129 30.1433 167.492 30.1433 166.68 30.1445Z" fill="white"/>
<path d="M134.064 91.0807C128.009 88.5255 122.307 85.7106 118.438 79.7749C119.087 79.9889 119.493 80.108 119.888 80.2553C122.883 81.3713 125.876 82.4947 128.871 83.6106C129.33 83.7816 129.943 83.7892 130.24 84.1036C132.684 86.6867 135.069 89.3246 137.281 92.2463C136.254 91.8726 135.226 91.4989 134.064 91.0807Z" fill="white"/>
<path d="M121.972 9.32167C119.555 6.90456 108.957 4.48745 108.957 4.48745C108.957 4.48745 115.465 3 121.786 3C128.108 3 129.781 4.11559 132.756 6.34677C135.731 8.57794 137.776 13.0403 137.59 16.7589C137.404 20.4776 132.012 34.7943 110.444 53.9452C88.8763 73.0961 69.9113 82.5786 69.9113 82.5786C69.9113 82.5786 65.6447 86.6691 62.1022 88.7144C58.5597 90.7596 52.4338 92.2471 52.4338 92.2471L56.1524 87.041C56.1524 87.041 49.4589 88.5845 44.8106 89.83C40.1623 91.0755 33.4688 90.0159 33.4688 90.0159C33.4688 90.0159 67.6266 76.2056 90.3638 58.4076C112.159 41.347 121.042 26.4505 122.344 21.5931C123.645 16.7358 124.389 11.7388 121.972 9.32167Z" fill="url(#paint0_linear_3225_6743)"/>
<path d="M200.46 107.565C201.33 107.558 202.202 107.555 203.076 107.554C202.202 107.555 201.33 107.558 200.46 107.565ZM164.25 107.549L185.791 107.552L185.792 107.554L164.25 107.549ZM178.958 34.137C181.963 34.1139 185.466 34.1983 187.906 34.1995V34.2004L207.726 34.2356C206.882 34.9014 206.033 35.5889 205.136 36.3401L204.361 36.9885L204.614 37.9661C205.804 42.5522 206.968 49.2324 207.979 54.1389V54.1409L214.583 86.0735V86.0754C215.992 92.8397 217.15 99.2932 219.252 105.948C213.931 106.018 208.573 105.949 203.189 105.955C203.766 104.9 204.328 103.825 204.855 102.702L205.065 102.254L204.986 101.765C204.464 98.5736 203.963 95.3767 203.486 92.178V92.177C203.209 90.3186 202.939 88.7216 202.549 86.8665L202.178 85.0989L200.469 85.6838C197.147 86.8198 195.099 88.3981 193.051 90.6565C192.084 89.5436 191.026 88.5167 189.885 87.595H189.886C189.055 86.9158 187.541 85.602 185.525 85.8704L185.105 85.926L184.769 86.1829C184.618 86.2974 184.477 86.4049 184.336 86.51L183.869 86.8596L183.736 87.428C182.907 90.9978 181.84 97.7898 181.214 100.961L181.125 101.412L181.29 101.842C181.847 103.293 182.494 104.644 183.162 105.954L166.674 105.951C166.833 105.601 167 105.234 167.169 104.862C167.702 103.689 168.311 102.337 168.51 101.553V101.551C169.939 95.8944 171.069 89.5913 172.236 83.9573L177.582 58.2971L177.583 58.2903C178.96 51.5283 180.273 44.418 181.896 37.8206L182.122 36.9036L181.427 36.2639C180.644 35.5434 179.784 34.8248 178.958 34.137ZM201.906 92.4133V92.4124C202.026 93.2139 202.146 94.0154 202.269 94.8167L202.641 97.2209C202.39 95.6193 202.145 94.0166 201.906 92.4133ZM192.552 92.553V92.552C192.707 92.749 192.86 92.9485 193.01 93.1506V93.1516C192.86 92.9496 192.707 92.7498 192.552 92.553ZM196.555 89.5295C196.245 89.771 195.946 90.0266 195.65 90.2961C195.946 90.0266 196.245 89.771 196.555 89.5295ZM188.52 88.5452V88.5442C188.639 88.6386 188.756 88.7351 188.874 88.8313V88.8323C188.757 88.7362 188.639 88.6395 188.52 88.5452ZM200.985 87.1946V87.1956C199.855 87.582 198.89 88.0202 198.023 88.5305L198.024 88.5295C198.371 88.3256 198.733 88.1327 199.115 87.9504C199.498 87.768 199.9 87.5961 200.327 87.4329C200.54 87.3513 200.76 87.2718 200.985 87.1946ZM185.736 87.4543C185.589 87.5669 185.441 87.6799 185.293 87.7903V87.7893C185.441 87.6789 185.589 87.5659 185.736 87.4534V87.4543ZM187.216 87.6985C187.347 87.7579 187.475 87.8248 187.602 87.8987C187.475 87.8248 187.347 87.7579 187.216 87.6985ZM191.704 43.1702C190.805 46.0669 190.123 49.5812 189.546 52.4495V52.4504C188.785 56.2445 187.951 60.0373 187.114 63.8469C186.279 67.6517 185.44 71.473 184.679 75.2991L184.298 77.2141L186.25 77.2083L193.075 77.1897L199.923 77.2004L201.958 77.2043L201.479 75.2268C199.828 68.4188 198.666 61.3658 197.17 54.3557L196.866 52.9543C196.664 52.0355 196.31 50.0595 195.908 48.011C195.711 47.0082 195.505 46.0028 195.309 45.1497C195.121 44.3365 194.915 43.542 194.706 43.0344L193.017 38.9377L191.704 43.1702ZM191.112 52.7649C190.73 54.6703 190.33 56.5748 189.921 58.4788V58.4778C190.33 56.574 190.73 54.6691 191.112 52.7639V52.7649ZM192.614 45.842C192.517 46.222 192.424 46.6072 192.332 46.9954C192.424 46.6069 192.517 46.2213 192.614 45.8411V45.842ZM193.229 43.6428V43.6438V43.6428ZM212.42 32.6477C210.468 34.1216 208.789 35.4001 206.957 36.9045C208.788 35.4004 210.466 34.1211 212.418 32.6477H212.42Z" fill="white"/>
<path d="M405.38 49.4673C406.387 51.0185 407.627 53.269 408.563 54.8628V54.8638C410.981 59.0422 413.449 63.19 415.962 67.3062C414.754 69.298 412.832 71.5954 410.671 73.8433C408.245 76.3664 405.61 78.7344 403.572 80.4038L402.578 81.2173L403.161 82.3628C405.513 86.9899 408.174 92.2542 411.402 97.0093C414.151 101.057 417.368 104.824 421.254 107.558C418.978 109.058 416.805 110.241 414.309 111.75L413.166 110.983C404.818 104.968 399.578 96.2382 394.465 86.8755L393.646 85.3765L392.205 86.2925C391.074 87.0114 389.955 87.7458 388.846 88.4966L388.16 88.9604L388.144 89.7886C388.1 92.0113 388.139 94.2879 388.164 96.5132C388.189 98.7522 388.201 100.95 388.107 103.079L388.085 103.579L388.352 104.001C388.75 104.634 389.196 105.29 389.648 105.941L374.74 105.963L376.782 103.034L377.064 102.63L377.069 102.137C377.239 86.0226 377.088 69.5791 377.086 53.4722V52.9507L376.778 52.5298C376.079 51.572 375.31 50.6343 374.562 49.7222C374.498 49.6439 374.435 49.5648 374.371 49.4868L405.38 49.4673ZM394.015 57.6626C392.321 57.6584 390.57 57.7034 389.718 57.7153L388.135 57.7378L388.143 59.3208C388.177 66.3208 388.166 73.3226 388.116 80.3228L388.094 83.4761L390.649 81.6294L392.917 79.9907L392.948 79.9673C397.86 76.2336 400.91 73.6328 405.473 69.4458L406.558 68.4507L405.653 67.2876C404.656 66.0061 403.644 64.489 402.571 62.9146C401.519 61.3708 400.408 59.7736 399.276 58.4575L398.944 58.0708L398.449 57.9487C397.917 57.817 397.185 57.7538 396.473 57.7173C395.724 57.6789 394.865 57.6647 394.015 57.6626Z" fill="white"/>
<path d="M354.342 50.0068C354.897 50.2956 355.623 50.6983 356.476 51.1865C358.177 52.1613 360.331 53.4468 362.524 54.7734C366.229 57.0141 370.087 59.3947 371.955 60.5127C372.079 65.9817 372.05 71.5881 372.005 77.2324C371.96 82.8701 371.902 88.5487 371.973 94.127C365.935 97.959 359.746 102.066 353.771 105.948C353.675 105.896 353.568 105.837 353.451 105.771C352.912 105.464 352.205 105.038 351.377 104.525C349.724 103.501 347.632 102.153 345.519 100.768C341.92 98.4079 338.328 95.9815 336.75 94.8691C336.938 83.8363 336.725 72.0722 336.757 61.0078C342.546 57.3326 348.307 53.6134 354.035 49.8506C354.128 49.8971 354.231 49.949 354.342 50.0068ZM353.192 61.0732C351.896 61.9587 349.86 63.2629 348.538 64.29L347.919 64.7715L347.921 65.5557C347.941 73.6599 348.082 82.2781 347.905 90.3037L347.886 91.1914L348.629 91.6768C348.92 91.8667 349.964 92.5823 350.865 93.1582C351.336 93.4592 351.83 93.7632 352.262 94C352.477 94.1177 352.7 94.2321 352.911 94.3232C353.079 94.3957 353.399 94.5262 353.755 94.5576L354.285 94.6045L354.737 94.3242L355.071 94.1172L355.084 94.1084L355.098 94.1006C356.704 93.0616 358.329 92.0451 359.971 91.0557L360.743 90.5898V89.6875L360.737 65.4766V64.6113L360.013 64.1387C359.655 63.9054 358.5 63.1226 357.439 62.4424C356.897 62.0944 356.34 61.747 355.863 61.4736C355.626 61.3376 355.392 61.2095 355.18 61.1064C355.007 61.0226 354.714 60.8876 354.408 60.8262L353.748 60.6934L353.192 61.0732Z" fill="white"/>
<path d="M316.589 107.509H316.59H316.589ZM331.822 34.1553C333.527 38.255 334.682 41.6301 335.832 45.6611C332.542 44.3919 329.895 43.8148 327.174 43.5791C323.797 43.2866 320.186 43.5266 315.325 43.4873L313.713 43.4736L313.714 45.0859L313.73 62.4072L313.731 63.9834L315.309 64.0029C321.113 64.0747 325.145 64.0797 330.538 63.5527C329.896 67.254 329.24 71.7883 328.767 75.6211C328.604 75.5012 328.442 75.3865 328.279 75.2822C327.247 74.6216 326.124 74.2324 324.595 74.1455C324.129 74.0676 323.433 74.0354 322.761 74.0156C321.947 73.9917 320.967 73.9831 319.987 73.9834C318.032 73.9839 316.009 74.0174 315.271 74.0234L313.631 74.0371L313.688 75.6768C313.734 77.0225 313.735 78.5129 313.711 79.8779C313.646 83.5961 313.705 87.3637 313.743 91.085C313.781 94.8182 313.797 98.5153 313.649 102.151L313.63 102.644L313.891 103.062C314.384 103.854 315.15 104.891 315.922 105.901C310.675 105.815 304.814 105.842 299.622 105.936C300.109 105.054 300.605 104.199 301.151 103.356L301.408 102.96V102.488L301.446 38.5137V37.9434L301.086 37.502C300.751 37.0923 299.749 35.814 298.822 34.5479C298.753 34.4533 298.687 34.3578 298.619 34.2646C299.644 34.2738 300.757 34.2692 301.854 34.2549C304.316 34.2226 306.715 34.158 308.185 34.1553H331.822ZM315.341 91.0684C315.323 89.3664 315.303 87.664 315.29 85.9658C315.302 87.664 315.323 89.3664 315.341 91.0684ZM315.283 84.7959C315.281 84.3081 315.281 83.8208 315.281 83.334C315.281 83.8208 315.281 84.3081 315.283 84.7959ZM331.102 70.2207C330.662 73.2593 330.271 76.3055 330.01 78.7451C329.516 78.3303 329.091 77.9503 328.694 77.6104C329.091 77.9503 329.516 78.3303 330.01 78.7451C330.075 78.1354 330.148 77.4873 330.229 76.8115C330.469 74.7831 330.772 72.4999 331.102 70.2207ZM328.073 77.0977C328.111 77.1276 328.149 77.1587 328.188 77.1895C328.149 77.1587 328.111 77.1276 328.073 77.0977ZM327.797 76.8887C327.842 76.9218 327.887 76.9559 327.933 76.9902C327.887 76.9559 327.842 76.9218 327.797 76.8887ZM327.489 76.6758C327.541 76.7095 327.592 76.7439 327.643 76.7793C327.592 76.7439 327.541 76.7095 327.489 76.6758ZM327.201 76.4971C327.255 76.5282 327.308 76.5599 327.36 76.5928C327.308 76.5599 327.255 76.5282 327.201 76.4971ZM326.89 76.3291C326.942 76.3552 326.994 76.3805 327.045 76.4082C326.994 76.3805 326.942 76.3552 326.89 76.3291ZM326.542 76.1709C326.612 76.1999 326.682 76.2291 326.75 76.2607C326.682 76.2291 326.612 76.1999 326.542 76.1709ZM326.227 76.0527C326.293 76.0752 326.359 76.0974 326.424 76.1221C326.359 76.0974 326.293 76.0752 326.227 76.0527ZM325.893 75.9521C325.951 75.9676 326.008 75.9821 326.064 75.999C326.008 75.9821 325.951 75.9676 325.893 75.9521ZM325.501 75.8633C325.567 75.8761 325.633 75.8868 325.697 75.9014C325.633 75.8868 325.567 75.8761 325.501 75.8633ZM319.988 75.5811C320.963 75.5807 321.925 75.5891 322.715 75.6123C322.912 75.6181 323.099 75.624 323.272 75.6318C323.619 75.6475 323.913 75.6681 324.134 75.6934L324.407 75.7354C323.837 75.6123 321.936 75.5805 319.988 75.5811ZM315.328 62.4053C316.144 62.4154 316.924 62.4245 317.676 62.4307C316.924 62.4245 316.144 62.4163 315.328 62.4062V62.4053ZM324.948 62.3457C325.617 62.318 326.29 62.2834 326.976 62.2402C326.29 62.2834 325.617 62.318 324.948 62.3457ZM336.491 42.2803C336.791 43.237 337.08 44.2127 337.37 45.2285C337.08 44.2127 336.791 43.237 336.491 42.2803Z" fill="white"/>
<path d="M259.906 107.368C259.179 107.379 258.454 107.392 257.73 107.407V107.405L259.906 107.368ZM292.94 107.391V107.392C287.138 107.4 281.23 107.346 275.326 107.319C279.754 107.339 284.184 107.374 288.57 107.387C290.032 107.391 291.49 107.393 292.94 107.391ZM264.285 107.321V107.322V107.321ZM271.763 49.3538C276.813 49.2867 281.823 49.1982 286.771 49.3079C288.262 49.341 289.926 49.3605 291.516 49.3314C292.125 52.8909 292.777 57.0956 293.503 60.8206C293.002 60.5968 292.479 60.367 291.956 60.1448C291.078 59.7716 290.182 59.4108 289.379 59.1263C288.61 58.8537 287.812 58.6087 287.172 58.5296C285.475 58.3201 283.383 58.2931 281.362 58.3079C279.288 58.3231 277.318 58.3813 275.669 58.3587L274.03 58.3362L274.05 59.9749C274.094 63.6185 274.111 67.2634 274.104 70.9075L274.1 72.5218L275.715 72.5081L288.729 72.3987L288.587 80.7181C286.24 79.8141 284.787 79.3961 283.257 79.2503C282.304 79.1596 281.353 79.1767 280.215 79.2054C279.062 79.2344 277.652 79.2789 275.688 79.263L274.07 79.2493L274.077 80.8665C274.095 85.4633 274.219 90.468 274.051 94.9319L273.993 96.4661L275.524 96.5853C277.778 96.7596 281.32 97.0186 283.678 96.8431C285.749 96.6899 288.734 96.1114 291.6 95.3431C293.024 94.9612 294.465 94.5201 295.782 94.0433C294.471 97.9706 293.156 101.917 291.806 105.791C281.695 105.792 271.206 105.626 261.018 105.755L262.067 103.666L262.418 103.21L262.357 102.92C262.41 102.721 262.448 102.526 262.477 102.355C262.543 101.958 262.595 101.485 262.637 100.966C262.72 99.9245 262.769 98.5919 262.796 97.0794C262.85 94.0494 262.814 90.1973 262.758 86.2972C262.701 82.3836 262.623 78.4281 262.591 75.1439C262.558 71.8168 262.575 69.3245 262.689 68.2757C262.728 67.9206 262.742 66.7726 262.747 65.4105C262.753 63.9818 262.748 62.1626 262.733 60.346C262.719 58.5301 262.695 56.7096 262.662 55.2786C262.646 54.5643 262.627 53.9389 262.605 53.4573C262.587 53.0428 262.563 52.5783 262.508 52.306L262.249 51.0237H261.55C261.075 50.5704 260.561 49.9891 260.047 49.3646C263.944 49.4429 267.864 49.4056 271.763 49.3538ZM260.441 101.525C260.452 101.582 260.461 101.64 260.473 101.698C260.494 101.809 260.517 101.92 260.542 102.032V102.033C260.504 101.862 260.471 101.691 260.44 101.521C260.441 101.522 260.441 101.523 260.441 101.525ZM260.397 101.27C260.411 101.353 260.425 101.436 260.44 101.52C260.438 101.505 260.434 101.49 260.432 101.475C260.42 101.407 260.408 101.338 260.397 101.27ZM260.356 100.998C260.308 100.648 260.273 100.298 260.249 99.9466L260.228 99.4993V99.4974C260.192 98.6246 260.219 97.7489 260.272 96.8714C260.188 98.2531 260.167 99.6309 260.356 100.998ZM260.591 92.2571C260.536 93.7934 260.366 95.3348 260.272 96.8714C260.366 95.3341 260.536 93.7921 260.591 92.2552V92.2571ZM260.604 91.6702C260.602 91.8654 260.598 92.0608 260.591 92.2562V92.2542C260.598 92.0595 260.602 91.8648 260.604 91.6702ZM261.024 77.7415C261.087 82.163 261.195 87.3385 261.22 91.848C261.195 87.3388 261.087 82.1638 261.024 77.7425V77.7415ZM260.606 91.5198C260.608 91.2859 260.608 91.0522 260.602 90.8187L260.601 90.8069L260.602 90.8177C260.597 90.6483 260.586 90.4618 260.571 90.263C260.586 90.4625 260.597 90.6497 260.602 90.8196C260.608 91.0529 260.608 91.2863 260.606 91.5198ZM260.379 88.4954C260.412 88.7509 260.446 89.0068 260.475 89.2571C260.515 89.6102 260.548 89.9517 260.571 90.263C260.561 90.1221 260.549 89.975 260.534 89.8235C260.494 89.4062 260.439 88.9553 260.38 88.5062C260.379 88.5026 260.379 88.499 260.379 88.4954ZM260.104 86.5306C260.163 86.9401 260.233 87.429 260.304 87.9407C260.303 87.9384 260.303 87.9362 260.303 87.9339C260.249 87.5443 260.196 87.1681 260.146 86.8304C260.131 86.7266 260.117 86.6264 260.104 86.5306ZM260.534 79.4788V79.4798C260.561 80.8153 260.638 82.5458 260.693 84.1087C260.638 82.5461 260.56 80.8159 260.533 79.4808V79.4798C260.551 80.37 260.591 81.4364 260.633 82.511C260.592 81.4361 260.552 80.3692 260.534 79.4788ZM290.146 83.0589V83.0579V83.0589ZM284.734 81.1204V81.1194C284.851 81.1478 284.969 81.1783 285.091 81.2112C285.212 81.2442 285.337 81.2798 285.465 81.3177L285.859 81.4388C285.453 81.3098 285.083 81.2055 284.734 81.1204ZM281.795 80.7806C282.375 80.7846 282.895 80.8098 283.422 80.8753C281.84 80.6787 280.321 80.8447 277.071 80.8626L275.675 80.8606V80.8597C278.669 80.8839 280.403 80.7709 281.795 80.7806ZM260.508 77.6282C260.507 77.5393 260.506 77.4505 260.505 77.3616C260.504 77.2101 260.503 77.0588 260.502 76.9075C260.502 76.8411 260.502 76.7747 260.502 76.7083C260.503 77.0145 260.505 77.3211 260.508 77.6282ZM260.5 76.3148C260.5 76.3802 260.501 76.4456 260.501 76.511C260.501 76.5771 260.501 76.6432 260.501 76.7093C260.5 76.3875 260.5 76.0663 260.5 75.7454V76.3148ZM260.987 70.8353C260.999 69.9295 261.022 69.1731 261.06 68.6058V68.6048C261.022 69.1721 260.999 69.9285 260.987 70.8343V70.8353ZM260.508 66.888C260.514 67.4176 260.518 67.9451 260.52 68.471V68.472C260.518 67.946 260.514 67.4177 260.508 66.888C260.514 67.4177 260.518 67.946 260.52 68.472V68.471C260.518 67.945 260.514 67.4167 260.508 66.887V66.888ZM260.04 62.6751V62.6741C260.059 63.0373 260.096 63.3938 260.143 63.7454L260.081 63.2132V63.2142C260.151 63.928 260.276 64.6184 260.373 65.3118V65.3108C260.349 65.1376 260.322 64.9646 260.296 64.7913V64.7923C260.19 64.099 260.078 63.4019 260.04 62.6751ZM288.846 60.6321V60.6312C291.124 61.4388 294.325 62.9464 295.721 63.595V63.596C294.326 62.9475 291.124 61.4399 288.846 60.6321ZM285.717 59.9983V59.9974C286.158 60.0273 286.58 60.0657 286.976 60.1146V60.1155C286.58 60.0667 286.158 60.0283 285.717 59.9983ZM275.647 59.9554C276.064 59.9611 276.505 59.9627 276.962 59.9603L275.647 59.9564V59.9554ZM259.98 58.2649C260.001 56.7712 260.049 55.2756 260.078 53.8284C260.079 53.7867 260.083 53.7458 260.089 53.7064L260.086 53.7298C260.082 53.7616 260.079 53.7942 260.078 53.8274C260.049 55.2721 260.002 56.7651 259.981 58.2562C259.981 58.2591 259.981 58.262 259.98 58.2649ZM260.089 53.7132C260.089 53.7106 260.088 53.7079 260.089 53.7054C260.09 53.6958 260.093 53.6865 260.095 53.6771C260.096 53.6728 260.097 53.6686 260.098 53.6644C260.094 53.6805 260.091 53.6967 260.089 53.7132ZM260.116 53.5921C260.109 53.6149 260.103 53.6379 260.098 53.6614C260.097 53.6654 260.096 53.6692 260.095 53.6731C260.101 53.6428 260.109 53.6134 260.118 53.5843C260.117 53.5868 260.117 53.5895 260.116 53.5921ZM260.13 53.5472C260.125 53.5613 260.121 53.5757 260.116 53.5901C260.117 53.5882 260.118 53.5862 260.118 53.5843L260.13 53.5472ZM259.564 51.2601V51.2591C260.036 51.7867 260.504 52.2612 260.94 52.6214H260.941V52.6224H260.94C260.504 52.2623 260.036 51.7876 259.564 51.2601ZM260.361 101.03C260.361 101.029 260.36 101.028 260.36 101.027C260.372 101.108 260.385 101.189 260.397 101.27C260.385 101.19 260.373 101.11 260.361 101.03ZM259.978 58.7562L259.972 59.3743C259.973 59.0052 259.975 58.6351 259.98 58.2649C259.978 58.4287 259.979 58.5925 259.978 58.7562Z" fill="white"/>
<path d="M439.819 106.292C440.227 106.552 440.631 106.812 441.031 107.074C440.631 106.812 440.227 106.552 439.819 106.292ZM438.601 105.528C438.892 105.709 439.182 105.891 439.47 106.073C439.182 105.891 438.892 105.709 438.601 105.528ZM434.405 49.8999C441.305 49.6675 449.808 49.8752 457.057 49.9116C457.02 52.9903 456.774 56.3448 456.525 59.5239C453.365 58.4101 451.144 57.8239 448.847 57.5229C446.155 57.1702 443.38 57.2148 438.979 57.1538L438.355 57.145L437.891 57.561C436.859 58.4848 435.629 59.3056 434.334 60.2163L433.655 60.6938L433.656 61.5249L433.689 89.5386L433.691 90.4976L434.538 90.9468C435.586 91.5039 436.801 92.3072 438.156 93.2046C439.479 94.0807 440.92 95.0367 442.317 95.8081L443.171 96.2788L443.98 95.7358L445.685 94.5913L446.414 94.1011L446.391 93.2222C446.274 88.8548 446.411 84.2547 446.376 79.7329L446.371 79.1382L445.979 78.6909L445.477 78.1382C445.113 77.749 444.712 77.3415 444.3 76.9321C446.281 76.9347 448.754 76.9406 451.204 76.9526C453.647 76.9646 456.04 76.9833 457.847 77.0132C458.016 77.016 458.181 77.019 458.339 77.022C458.005 77.5191 457.658 78.0251 457.336 78.5044L457.06 78.9165L457.064 79.4126C457.152 87.4732 457.097 95.637 457.071 103.754C455.883 102.58 454.684 101.406 453.604 100.306L452.694 99.3804L451.603 100.081C448.506 102.065 445.396 104.032 442.276 105.983C439.253 103.987 435.985 102.066 432.771 100.165C429.482 98.2188 426.247 96.2868 423.294 94.27L423.277 59.0483C426.691 56.6071 431.344 52.6386 434.405 49.8999ZM447.368 104.669V104.67V104.669ZM437.435 104.809C437.717 104.981 437.998 105.155 438.277 105.328C437.998 105.155 437.717 104.981 437.435 104.809ZM436.394 104.178C436.547 104.271 436.701 104.364 436.854 104.457C436.701 104.364 436.547 104.271 436.394 104.178ZM454.01 102.975C454.451 103.413 454.895 103.85 455.339 104.288C454.372 103.334 453.401 102.38 452.464 101.425L454.01 102.975ZM442.023 93.7896C441.789 93.6479 441.554 93.5011 441.318 93.353C441.554 93.5011 441.789 93.6479 442.023 93.7896ZM458.692 82.9087C458.707 85.2553 458.711 87.609 458.71 89.9653H458.709C458.71 87.609 458.706 85.2553 458.691 82.9087H458.692ZM440.865 93.0669C440.713 92.9694 440.561 92.8707 440.409 92.772C440.561 92.8707 440.713 92.9694 440.865 93.0669ZM435.719 89.7729C435.796 89.8165 435.873 89.8623 435.951 89.9077C435.863 89.8567 435.777 89.806 435.69 89.7573L435.719 89.7729ZM444.299 79.2173C444.385 79.3098 444.467 79.4036 444.549 79.4937C444.307 79.2276 444.046 78.9475 443.769 78.6636L444.299 79.2173ZM444.288 75.3345C449.764 75.3417 458.995 75.3681 460.744 75.5034C458.995 75.3681 449.763 75.3426 444.287 75.3354L440.344 75.3306L444.288 75.3345ZM438.079 59.4839V59.4849V59.4839ZM443.311 58.8022L443.31 58.8013L443.311 58.8022ZM422.343 57.7515C422.115 57.914 421.894 58.0699 421.68 58.2173C421.894 58.0699 422.115 57.914 422.343 57.7515ZM423.012 57.2651C422.833 57.397 422.657 57.5255 422.484 57.6499C422.657 57.5255 422.833 57.397 423.012 57.2651ZM423.752 56.7114C423.573 56.8473 423.395 56.98 423.221 57.1099C423.395 56.98 423.573 56.8473 423.752 56.7114ZM424.322 56.2739C424.194 56.373 424.067 56.4714 423.94 56.5679C424.067 56.4714 424.194 56.373 424.322 56.2739ZM425.697 55.1948C425.644 55.237 425.592 55.2789 425.539 55.3208C425.592 55.2789 425.644 55.237 425.697 55.1948ZM427.473 53.7524C427.172 54.0001 426.872 54.2457 426.572 54.4888C426.872 54.2457 427.172 54.0001 427.473 53.7524ZM429.091 52.4019C428.777 52.6667 428.461 52.9322 428.144 53.1968C428.461 52.9322 428.777 52.6667 429.091 52.4019ZM430.581 51.1294C430.264 51.4029 429.942 51.681 429.614 51.9595C429.942 51.6811 430.264 51.4028 430.581 51.1294ZM439.763 48.2007C438.199 48.2112 436.673 48.235 435.213 48.2759C436.673 48.235 438.199 48.2112 439.763 48.2007ZM442.589 94.1255L442.115 93.8462C442.106 93.8409 442.098 93.8349 442.089 93.8296C442.256 93.9301 442.423 94.0293 442.589 94.1255Z" fill="white"/>
<path d="M487.295 107.645C487.962 107.65 488.63 107.656 489.298 107.663C488.63 107.656 487.962 107.65 487.295 107.645ZM483.117 107.625C483.734 107.626 484.351 107.629 484.968 107.631C484.351 107.629 483.734 107.626 483.117 107.625ZM481.155 107.62C480.296 107.619 479.436 107.619 478.577 107.619C479.436 107.619 480.296 107.619 481.155 107.62ZM461.326 106.251H461.327C461.068 106.684 460.81 107.126 460.555 107.584C460.683 107.355 460.811 107.13 460.939 106.908C461.068 106.686 461.197 106.467 461.326 106.251ZM493.732 49.6489C494.231 53.0114 494.985 57.4469 495.67 61.0591C494.978 60.7528 494.251 60.4374 493.528 60.1479C491.72 59.4231 489.655 58.7203 488.002 58.6636C484.728 58.5511 481.132 58.6315 477.917 58.6411L476.324 58.646V60.2397L476.328 71.1538L476.329 72.7554L477.931 72.7505L490.752 72.7114L490.63 80.9556C488.62 80.1455 487.025 79.7372 485.368 79.564C483.257 79.3433 481.017 79.5172 477.894 79.5649L476.312 79.5894L476.32 81.1704C476.327 82.5867 476.284 85.3658 476.276 88.189C476.269 90.9236 476.293 93.7689 476.457 95.0796L476.534 95.6997L477.013 96.1021C477.398 96.4265 477.804 96.7028 478.378 96.8237C478.589 96.8683 478.803 96.8856 478.916 96.896C479.052 96.9086 479.187 96.9215 479.363 96.9478L479.428 96.9575L479.493 96.9614C486.403 97.4218 491.368 96.7244 497.284 94.2417C495.959 98.0443 494.509 102.833 493.437 106.118C483.379 105.948 473.348 106.061 463.355 106.004C463.909 105.127 464.485 104.26 465.104 103.334L465.353 102.965L465.373 102.521C465.621 97.2404 465.451 90.6352 465.451 85.3442L465.475 54.3599L465.476 53.8325L465.161 53.4077C464.209 52.1231 463.328 50.9109 462.457 49.6733C472.798 49.7661 483.426 49.6528 493.732 49.6489ZM463.849 100.484C463.838 100.853 463.828 101.217 463.814 101.577L463.777 102.446C463.807 101.809 463.83 101.154 463.849 100.484ZM463.886 98.6743C463.884 98.7918 463.883 98.909 463.881 99.0259C463.883 98.909 463.884 98.7918 463.886 98.6743ZM463.906 96.5054C463.905 96.9054 463.9 97.3034 463.896 97.6987C463.9 97.3034 463.905 96.9054 463.906 96.5054ZM498.781 94.7993H498.782H498.781ZM463.907 94.606C463.908 94.9435 463.909 95.2806 463.908 95.6167C463.908 95.2806 463.908 94.9435 463.907 94.606ZM482.468 95.4917C482.697 95.4955 482.925 95.4971 483.15 95.4976C482.925 95.4972 482.697 95.4955 482.468 95.4917ZM485.134 95.4536V95.4546V95.4536ZM479.301 95.3296C479.389 95.3394 479.488 95.3511 479.6 95.3677C479.848 95.3842 480.094 95.3991 480.338 95.4126C480.094 95.3991 479.848 95.3842 479.6 95.3677C479.488 95.351 479.389 95.3394 479.301 95.3296ZM478.707 95.2603L478.708 95.2612L478.707 95.2603ZM492.507 94.2544V94.2554V94.2544ZM498.799 91.8179V91.8169V91.8179ZM463.877 54.3599L463.854 85.3423L463.86 87.4019C463.869 88.8317 463.881 90.317 463.893 91.8169C463.876 89.5815 463.854 87.3792 463.854 85.3433L463.877 54.3599ZM492.934 61.6313C493.387 61.8132 493.84 62.0033 494.284 62.1948C494.062 62.0991 493.838 62.0038 493.612 61.9097L492.934 61.6313Z" fill="white"/>
<path d="M254.125 107.511L221.484 107.544C221.75 107.054 221.998 106.603 222.24 106.173V106.174C221.998 106.604 221.749 107.054 221.484 107.544L254.125 107.51C254.357 106.792 254.592 106.074 254.829 105.357C254.592 106.074 254.357 106.792 254.125 107.511ZM239.11 49.4849C238.548 50.2386 237.991 50.9968 237.44 51.7593L237.138 52.1782L237.139 52.6958L237.145 95.4419V97.0063L238.709 97.0386C243.432 97.1361 247.055 97.1267 250.507 96.2173C252.787 95.6166 254.939 94.6374 257.278 93.1265C256.777 94.6814 256.26 96.2314 255.729 97.7759C254.776 100.477 253.855 103.19 252.966 105.915L224.217 105.944C224.723 105.083 225.24 104.248 225.876 103.255L226.118 102.877L226.128 102.429C226.248 97.0588 226.146 91.1476 226.148 85.7954V85.7944L226.137 53.4849V52.9009L225.76 52.4546C224.934 51.4764 224.117 50.49 223.308 49.4966L239.11 49.4849ZM255.064 104.649C255.193 104.264 255.321 103.878 255.45 103.494C255.321 103.878 255.192 104.264 255.064 104.649ZM256.438 100.592C256.227 101.204 256.018 101.816 255.81 102.429C256.018 101.816 256.227 101.203 256.438 100.591V100.592ZM224.56 100.877L224.531 102.394C224.545 101.781 224.554 101.161 224.562 100.536C224.561 100.65 224.561 100.764 224.56 100.877ZM224.578 98.8921C224.575 99.2699 224.574 99.6463 224.569 100.021C224.574 99.6463 224.575 99.2699 224.578 98.8921ZM246.417 95.3052C246.175 95.3282 245.931 95.3498 245.683 95.3677C245.931 95.3498 246.175 95.3282 246.417 95.3052ZM248.886 94.9526H248.887H248.886ZM253.079 93.6196H253.08H253.079ZM259.517 89.5542C258.8 90.1169 258.113 90.6279 257.449 91.0913C257.007 91.4002 256.574 91.6874 256.149 91.9556C257.423 91.151 258.768 90.169 260.244 88.9731C259.998 89.1725 259.756 89.3666 259.517 89.5542Z" fill="white"/>
<defs>
<linearGradient id="paint0_linear_3225_6743" x1="111.34" y1="3" x2="59.7187" y2="92.2471" gradientUnits="userSpaceOnUse">
<stop stop-color="#FF9A38"/>
<stop offset="1" stop-color="#B16924"/>
</linearGradient>
</defs>
</svg>
