<svg width="18" height="18" viewBox="0 0 18 18" fill="none" xmlns="http://www.w3.org/2000/svg">
<path d="M9 9.62388C8.25676 9.62388 7.62484 9.36102 7.10424 8.8353C6.58377 8.30943 6.32353 7.67114 6.32353 6.9204C6.32353 6.16967 6.58377 5.53137 7.10424 5.00551C7.62484 4.47979 8.25676 4.21693 9 4.21693C9.74324 4.21693 10.3752 4.47979 10.8958 5.00551C11.4162 5.53137 11.6765 6.16967 11.6765 6.9204C11.6765 7.67114 11.4162 8.30943 10.8958 8.8353C10.3752 9.36102 9.74324 9.62388 9 9.62388ZM9 8.37612C9.39598 8.37612 9.73514 8.23346 10.0175 7.94814C10.2999 7.66296 10.4412 7.32038 10.4412 6.9204C10.4412 6.52043 10.2999 6.17785 10.0175 5.89267C9.73514 5.60735 9.39598 5.46469 9 5.46469C8.60402 5.46469 8.26486 5.60735 7.98253 5.89267C7.70006 6.17785 7.55882 6.52043 7.55882 6.9204C7.55882 7.32038 7.70006 7.66296 7.98253 7.94814C8.26486 8.23346 8.60402 8.37612 9 8.37612ZM2.71112 13.3655C2.4852 13.2291 2.3102 13.0467 2.18612 12.8183C2.06204 12.5901 2 12.3439 2 12.0795V5.92053C2 5.65615 2.06204 5.40985 2.18612 5.18165C2.3102 4.95331 2.4852 4.77093 2.71112 4.63451L8.22238 1.22564C8.46519 1.07521 8.72439 1 9 1C9.27561 1 9.53481 1.07521 9.77762 1.22564L15.2889 4.63451C15.5148 4.77093 15.6898 4.95331 15.8139 5.18165C15.938 5.40985 16 5.65615 16 5.92053V12.0795C16 12.3439 15.938 12.5901 15.8139 12.8183C15.6898 13.0467 15.5148 13.2291 15.2889 13.3655L9.77762 16.7744C9.53481 16.9248 9.27561 17 9 17C8.72439 17 8.46519 16.9248 8.22238 16.7744L2.71112 13.3655ZM9 12.9512C8.43616 12.9512 7.88103 13.023 7.33462 13.1665C6.78834 13.3098 6.26863 13.5196 5.77547 13.7958L8.86535 15.7202C8.90763 15.747 8.95251 15.7604 9 15.7604C9.04749 15.7604 9.09237 15.747 9.13465 15.7202L12.2245 13.7958C11.7314 13.5196 11.2117 13.3098 10.6654 13.1665C10.119 13.023 9.56384 12.9512 9 12.9512ZM4.58629 13.0583C5.24608 12.6244 5.94999 12.2901 6.69803 12.0553C7.44607 11.8208 8.21339 11.7035 9 11.7035C9.78661 11.7035 10.5539 11.8208 11.302 12.0553C12.05 12.2901 12.7539 12.6244 13.4137 13.0583L14.6459 12.3161C14.6882 12.2895 14.7185 12.2576 14.7369 12.2203C14.7554 12.1828 14.7647 12.1428 14.7647 12.1003V5.92053C14.7647 5.87797 14.7554 5.83797 14.7369 5.80054C14.7185 5.76325 14.6882 5.73129 14.6459 5.70467L9.13465 2.30058C9.09237 2.27382 9.04749 2.26044 9 2.26044C8.95251 2.26044 8.90763 2.27382 8.86535 2.30058L3.35409 5.70467C3.31181 5.73129 3.28148 5.76325 3.26309 5.80054C3.24456 5.83797 3.23529 5.87797 3.23529 5.92053V12.1003C3.23529 12.1428 3.24456 12.1828 3.26309 12.2203C3.28148 12.2576 3.31181 12.2895 3.35409 12.3161L4.58629 13.0583Z" fill="white"/>
</svg>
