<svg width="18" height="18" viewBox="0 0 18 18" fill="none" xmlns="http://www.w3.org/2000/svg">
<path d="M3.48874 16C3.07272 16 2.72059 15.8559 2.43235 15.5676C2.14412 15.2794 2 14.9273 2 14.5113V3.48874C2 3.07272 2.14412 2.72059 2.43235 2.43235C2.72059 2.14412 3.07272 2 3.48874 2H11.5037C11.7023 2 11.8932 2.03857 12.0763 2.11571C12.2595 2.19271 12.4187 2.2988 12.5537 2.434L15.566 5.44627C15.7012 5.58132 15.8073 5.74047 15.8843 5.92371C15.9614 6.1068 16 6.29766 16 6.49626V14.5113C16 14.9273 15.8559 15.2794 15.5676 15.5676C15.2794 15.8559 14.9273 16 14.5113 16H3.48874ZM3.48874 14.7647H14.5113C14.5852 14.7647 14.646 14.741 14.6935 14.6935C14.741 14.646 14.7647 14.5852 14.7647 14.5113V6.52941H12.2149C12.0027 6.52941 11.8256 6.45838 11.6837 6.31632C11.5416 6.1744 11.4706 5.99734 11.4706 5.78515V3.23529H3.48874C3.41475 3.23529 3.35402 3.25904 3.30653 3.30653C3.25904 3.35402 3.23529 3.41475 3.23529 3.48874V14.5113C3.23529 14.5852 3.25904 14.646 3.30653 14.6935C3.35402 14.741 3.41475 14.7647 3.48874 14.7647ZM12.2941 12.7059C12.4694 12.7059 12.6161 12.6467 12.7343 12.5284C12.8526 12.4102 12.9118 12.2635 12.9118 12.0882C12.9118 11.913 12.8526 11.7662 12.7343 11.6481C12.6161 11.5297 12.4694 11.4706 12.2941 11.4706H5.70588C5.53061 11.4706 5.38388 11.5297 5.26571 11.6481C5.14739 11.7662 5.08824 11.913 5.08824 12.0882C5.08824 12.2635 5.14739 12.4102 5.26571 12.5284C5.38388 12.6467 5.53061 12.7059 5.70588 12.7059H12.2941ZM8.38235 6.52941C8.55763 6.52941 8.70435 6.47025 8.82253 6.35194C8.94084 6.23377 9 6.08704 9 5.91176C9 5.73649 8.94084 5.58976 8.82253 5.47159C8.70435 5.35327 8.55763 5.29412 8.38235 5.29412H5.70588C5.53061 5.29412 5.38388 5.35327 5.26571 5.47159C5.14739 5.58976 5.08824 5.73649 5.08824 5.91176C5.08824 6.08704 5.14739 6.23377 5.26571 6.35194C5.38388 6.47025 5.53061 6.52941 5.70588 6.52941H8.38235ZM12.2941 9.61765C12.4694 9.61765 12.6161 9.55849 12.7343 9.44018C12.8526 9.322 12.9118 9.17527 12.9118 9C12.9118 8.82473 12.8526 8.678 12.7343 8.55982C12.6161 8.44151 12.4694 8.38235 12.2941 8.38235H5.70588C5.53061 8.38235 5.38388 8.44151 5.26571 8.55982C5.14739 8.678 5.08824 8.82473 5.08824 9C5.08824 9.17527 5.14739 9.322 5.26571 9.44018C5.38388 9.55849 5.53061 9.61765 5.70588 9.61765H12.2941Z" fill="white"/>
</svg>
