<svg width="18" height="18" viewBox="0 0 18 18" fill="none" xmlns="http://www.w3.org/2000/svg">
<path d="M8.18533 6.88057V2.80219C8.18533 2.57339 8.25736 2.38253 8.40141 2.22961C8.54559 2.07654 8.72538 2 8.94075 2H16.1259C16.3414 2 16.5212 2.07654 16.6652 2.22961C16.8094 2.38253 16.8815 2.57339 16.8815 2.80219V6.88057C16.8815 7.10922 16.8094 7.30008 16.6652 7.45315C16.5212 7.60608 16.3414 7.68254 16.1259 7.68254H8.94075C8.72538 7.68254 8.54559 7.60608 8.40141 7.45315C8.25736 7.30008 8.18533 7.10922 8.18533 6.88057ZM1 14.5085V10.4301C1 10.2014 1.07209 10.0106 1.21628 9.8575C1.36033 9.70458 1.54011 9.62812 1.75563 9.62812H8.10488C8.32026 9.62812 8.50004 9.70458 8.64423 9.8575C8.78827 10.0106 8.8603 10.2014 8.8603 10.4301V14.5085C8.8603 14.7373 8.78827 14.9281 8.64423 15.081C8.50004 15.2341 8.32026 15.3107 8.10488 15.3107H1.75563C1.54011 15.3107 1.36033 15.2341 1.21628 15.081C1.07209 14.9281 1 14.7373 1 14.5085ZM1 6.88057V2.80219C1 2.57339 1.07209 2.38253 1.21628 2.22961C1.36033 2.07654 1.54011 2 1.75563 2H5.59728C5.81265 2 5.99243 2.07654 6.13662 2.22961C6.28067 2.38253 6.35269 2.57339 6.35269 2.80219V6.88057C6.35269 7.10922 6.28067 7.30008 6.13662 7.45315C5.99243 7.60608 5.81265 7.68254 5.59728 7.68254H1.75563C1.54011 7.68254 1.36033 7.60608 1.21628 7.45315C1.07209 7.30008 1 7.10922 1 6.88057ZM9.43893 6.3517H15.6277V3.33107H9.43893V6.3517ZM2.2538 13.9796H7.6067V10.959H2.2538V13.9796ZM2.2538 6.3517H5.0991V3.33107H2.2538V6.3517ZM11.6926 15.2732L11.1911 15.4557C11.0529 15.5035 10.9182 15.5018 10.787 15.4506C10.6556 15.3993 10.5519 15.3123 10.4758 15.1895L10.3649 14.9728C10.2888 14.8351 10.2593 14.6898 10.2765 14.5369C10.2936 14.3838 10.3628 14.2549 10.484 14.1502L10.8632 13.8054C10.8032 13.5564 10.7732 13.3073 10.7732 13.058C10.7732 12.8088 10.8032 12.5597 10.8632 12.3107L10.484 11.9659C10.3682 11.867 10.299 11.7418 10.2765 11.5905C10.254 11.4393 10.2809 11.2948 10.3569 11.1571L10.4967 10.9268C10.5728 10.8039 10.673 10.7169 10.7974 10.6657C10.9217 10.6145 11.0529 10.6128 11.1911 10.6606L11.6926 10.8432C11.8566 10.6735 12.0345 10.5367 12.2263 10.4327C12.4182 10.3286 12.6218 10.2424 12.8372 10.1741L12.9224 9.6503C12.9535 9.49442 13.0247 9.36641 13.1362 9.26629C13.2476 9.16616 13.3768 9.1161 13.5236 9.1161H13.7453C13.8922 9.1161 14.0213 9.16845 14.1327 9.27316C14.2442 9.37773 14.3155 9.50795 14.3465 9.66383L14.4318 10.1741C14.6472 10.2424 14.8508 10.3286 15.0426 10.4327C15.2344 10.5367 15.4123 10.6735 15.5763 10.8432L16.0778 10.6606C16.216 10.6128 16.3507 10.6145 16.482 10.6657C16.6133 10.7169 16.717 10.8039 16.7931 10.9268L16.9039 11.1433C16.9801 11.281 17.0095 11.4264 16.9923 11.5795C16.9751 11.7324 16.906 11.8612 16.785 11.9659L16.4057 12.3107C16.4657 12.5597 16.4957 12.8088 16.4957 13.058C16.4957 13.3073 16.4657 13.5564 16.4057 13.8054L16.785 14.1502C16.9007 14.2491 16.9698 14.3743 16.9923 14.5258C17.0148 14.6771 16.9881 14.8215 16.912 14.959L16.7722 15.1895C16.6961 15.3123 16.5959 15.3993 16.4715 15.4506C16.3472 15.5018 16.216 15.5035 16.0778 15.4557L15.5763 15.2732C15.4069 15.4427 15.2277 15.5795 15.0386 15.6836C14.8494 15.7877 14.6472 15.8738 14.4318 15.942L14.3465 16.466C14.3155 16.6218 14.2442 16.7497 14.1327 16.8498C14.0213 16.9499 13.8922 17 13.7453 17H13.5236C13.3768 17 13.2476 16.9477 13.1362 16.8432C13.0247 16.7384 12.9535 16.6081 12.9224 16.4523L12.8372 15.942C12.6218 15.8738 12.4195 15.7877 12.2303 15.6836C12.0413 15.5795 11.862 15.4427 11.6926 15.2732ZM13.6344 14.9011C14.1155 14.9011 14.5252 14.7217 14.8633 14.3627C15.2014 14.0038 15.3705 13.5689 15.3705 13.058C15.3705 12.5472 15.2014 12.1123 14.8633 11.7534C14.5252 11.3944 14.1155 11.215 13.6344 11.215C13.1533 11.215 12.7437 11.3944 12.4056 11.7534C12.0675 12.1123 11.8985 12.5472 11.8985 13.058C11.8985 13.5689 12.0675 14.0038 12.4056 14.3627C12.7437 14.7217 13.1533 14.9011 13.6344 14.9011Z" fill="white"/>
</svg>
