<svg width="18" height="18" viewBox="0 0 18 18" fill="none" xmlns="http://www.w3.org/2000/svg">
<path d="M13.7454 16C12.3569 16 10.9618 15.6771 9.56037 15.0314C8.15902 14.3857 6.87145 13.4748 5.69766 12.2988C4.52399 11.1227 3.6143 9.83509 2.96858 8.43595C2.32286 7.03693 2 5.64313 2 4.25455C2 4.03141 2.07368 3.84548 2.22105 3.69676C2.36842 3.54804 2.55263 3.47368 2.77368 3.47368H5.17689C5.36295 3.47368 5.52708 3.53441 5.66929 3.65587C5.8115 3.7772 5.90195 3.92715 5.94063 4.10571L6.36303 6.27368C6.39225 6.47484 6.38611 6.64769 6.34461 6.79224C6.30297 6.93678 6.22831 7.05818 6.1206 7.15642L4.41887 8.81303C4.69273 9.31457 5.00564 9.78903 5.3576 10.2364C5.70945 10.6837 6.09039 11.1109 6.50045 11.518C6.90473 11.9224 7.33455 12.2979 7.78992 12.6446C8.24529 12.9913 8.73701 13.3139 9.26508 13.6124L10.9186 11.9446C11.0339 11.8246 11.1735 11.7405 11.3374 11.6922C11.5013 11.6441 11.6715 11.6323 11.8483 11.6569L13.8943 12.0736C14.0803 12.1227 14.2322 12.2176 14.3498 12.3583C14.4675 12.4991 14.5263 12.6587 14.5263 12.8373V15.2263C14.5263 15.4474 14.452 15.6316 14.3032 15.7789C14.1545 15.9263 13.9686 16 13.7454 16ZM3.89589 7.76726L5.21097 6.50892C5.23455 6.49001 5.2499 6.46403 5.25703 6.431C5.26415 6.39796 5.26298 6.36726 5.25353 6.33889L4.93318 4.69224C4.92373 4.65454 4.90721 4.62623 4.88363 4.60732C4.86005 4.5884 4.82935 4.57895 4.79153 4.57895H3.21579C3.18742 4.57895 3.16378 4.5884 3.14487 4.60732C3.12608 4.62623 3.11668 4.64987 3.11668 4.67824C3.15439 5.18175 3.23679 5.69324 3.36389 6.21271C3.49088 6.73231 3.66821 7.25049 3.89589 7.76726ZM10.3064 14.1352C10.7948 14.3629 11.3042 14.537 11.8346 14.6575C12.3652 14.7778 12.8609 14.8494 13.3218 14.8721C13.3501 14.8721 13.3738 14.8626 13.3927 14.8437C13.4116 14.8248 13.4211 14.8012 13.4211 14.7728V13.2227C13.4211 13.1848 13.4116 13.1541 13.3927 13.1306C13.3738 13.107 13.3455 13.0905 13.3078 13.081L11.7604 12.7664C11.732 12.7569 11.7072 12.7557 11.686 12.7629C11.6647 12.77 11.6423 12.7853 11.6186 12.8089L10.3064 14.1352ZM9.55263 3.10526C9.39605 3.10526 9.26477 3.05227 9.15879 2.94629C9.05293 2.84031 9 2.70903 9 2.55245C9 2.39575 9.05293 2.26453 9.15879 2.15879C9.26477 2.05293 9.39605 2 9.55263 2H15.4474C15.6039 2 15.7352 2.05299 15.841 2.15897C15.947 2.26496 16 2.39624 16 2.55282C16 2.70952 15.947 2.84074 15.841 2.94647C15.7352 3.05233 15.6039 3.10526 15.4474 3.10526H9.55263ZM9.55263 5.82587C9.39605 5.82587 9.26477 5.77288 9.15879 5.66689C9.05293 5.56091 9 5.42963 9 5.27305C9 5.11635 9.05293 4.98513 9.15879 4.87939C9.26477 4.77354 9.39605 4.72061 9.55263 4.72061H15.4474C15.6039 4.72061 15.7352 4.7736 15.841 4.87958C15.947 4.98556 16 5.1169 16 5.27361C16 5.43018 15.947 5.5614 15.841 5.66726C15.7352 5.773 15.6039 5.82587 15.4474 5.82587H9.55263ZM9.55263 8.54647C9.39605 8.54647 9.26477 8.49348 9.15879 8.3875C9.05293 8.28164 9 8.15036 9 7.99366C9 7.83696 9.05293 7.70574 9.15879 7.6C9.26477 7.49414 9.39605 7.44121 9.55263 7.44121H15.4474C15.6039 7.44121 15.7352 7.4942 15.841 7.60018C15.947 7.70617 16 7.83751 16 7.99421C16 8.15079 15.947 8.28201 15.841 8.38787C15.7352 8.49361 15.6039 8.54647 15.4474 8.54647H9.55263Z" fill="white"/>
</svg>
