<svg width="18" height="18" viewBox="0 0 18 18" fill="none" xmlns="http://www.w3.org/2000/svg">
<path d="M2.436 16C2.02681 16 1.68519 15.8651 1.41111 15.5953C1.13704 15.3255 1 14.9892 1 14.5864V3.41356C1 3.01077 1.13704 2.67448 1.41111 2.40469C1.68519 2.1349 2.02681 2 2.436 2H6.50422C6.91341 2 7.25504 2.1349 7.52911 2.40469C7.80319 2.67448 7.94022 3.01077 7.94022 3.41356V14.5864C7.94022 14.9892 7.80319 15.3255 7.52911 15.5953C7.25504 15.8651 6.91341 16 6.50422 16H2.436ZM11.4958 16C11.0866 16 10.745 15.8651 10.4709 15.5953C10.1968 15.3255 10.0598 14.9892 10.0598 14.5864V3.41356C10.0598 3.01077 10.1968 2.67448 10.4709 2.40469C10.745 2.1349 11.0866 2 11.4958 2H15.564C15.9732 2 16.3148 2.1349 16.5889 2.40469C16.863 2.67448 17 3.01077 17 3.41356V14.5864C17 14.9892 16.863 15.3255 16.5889 15.5953C16.3148 15.8651 15.9732 16 15.564 16H11.4958ZM2.436 15.125H6.50422C6.66378 15.125 6.79482 15.0745 6.89733 14.9736C7 14.8726 7.05133 14.7435 7.05133 14.5864V3.41356C7.05133 3.2565 7 3.12744 6.89733 3.02637C6.79482 2.92546 6.66378 2.875 6.50422 2.875H2.436C2.27644 2.875 2.14533 2.92546 2.04267 3.02637C1.94015 3.12744 1.88889 3.2565 1.88889 3.41356V14.5864C1.88889 14.7435 1.94015 14.8726 2.04267 14.9736C2.14533 15.0745 2.27644 15.125 2.436 15.125ZM11.4958 15.125H15.564C15.7236 15.125 15.8547 15.0745 15.9573 14.9736C16.0599 14.8726 16.1111 14.7435 16.1111 14.5864V3.41356C16.1111 3.2565 16.0599 3.12744 15.9573 3.02637C15.8547 2.92546 15.7236 2.875 15.564 2.875H11.4958C11.3362 2.875 11.2052 2.92546 11.1027 3.02637C11 3.12744 10.9487 3.2565 10.9487 3.41356V14.5864C10.9487 14.7435 11 14.8726 11.1027 14.9736C11.2052 15.0745 11.3362 15.125 11.4958 15.125ZM5.78622 10.6489C5.78622 10.5245 5.74378 10.4206 5.65889 10.337C5.574 10.2533 5.4683 10.2114 5.34178 10.2114H3.564C3.43763 10.2114 3.332 10.2533 3.24711 10.337C3.16207 10.4206 3.11956 10.5245 3.11956 10.6489C3.11956 10.7735 3.16207 10.8775 3.24711 10.9611C3.332 11.0447 3.43763 11.0864 3.564 11.0864H5.34178C5.4683 11.0864 5.574 11.0447 5.65889 10.9611C5.74378 10.8775 5.78622 10.7735 5.78622 10.6489ZM14.8804 10.6489C14.8804 10.5245 14.8379 10.4206 14.7529 10.337C14.668 10.2533 14.5624 10.2114 14.436 10.2114H12.6411C12.5146 10.2114 12.4117 10.2533 12.3324 10.337C12.2533 10.4206 12.2138 10.5245 12.2138 10.6489C12.2138 10.7735 12.2562 10.8775 12.3411 10.9611C12.426 11.0447 12.5317 11.0864 12.6582 11.0864H14.436C14.5624 11.0864 14.668 11.0447 14.7529 10.9611C14.8379 10.8775 14.8804 10.7735 14.8804 10.6489ZM5.78622 8.19238C5.78622 8.06783 5.74378 7.96378 5.65889 7.88022C5.574 7.79666 5.4683 7.75488 5.34178 7.75488H3.564C3.43763 7.75488 3.332 7.79666 3.24711 7.88022C3.16207 7.96378 3.11956 8.06783 3.11956 8.19238C3.11956 8.31692 3.16207 8.42097 3.24711 8.50453C3.332 8.58809 3.43763 8.62987 3.564 8.62987H5.34178C5.4683 8.62987 5.574 8.58809 5.65889 8.50453C5.74378 8.42097 5.78622 8.31692 5.78622 8.19238ZM14.8804 8.19238C14.8804 8.06783 14.8379 7.96378 14.7529 7.88022C14.668 7.79666 14.5624 7.75488 14.436 7.75488H12.6411C12.5146 7.75488 12.4117 7.79666 12.3324 7.88022C12.2533 7.96378 12.2138 8.06783 12.2138 8.19238C12.2138 8.31692 12.2562 8.42097 12.3411 8.50453C12.426 8.58809 12.5317 8.62987 12.6582 8.62987H14.436C14.5624 8.62987 14.668 8.58809 14.7529 8.50453C14.8379 8.42097 14.8804 8.31692 14.8804 8.19238ZM5.78622 5.71875C5.78622 5.59421 5.74378 5.49016 5.65889 5.40659C5.574 5.32303 5.4683 5.28125 5.34178 5.28125H3.564C3.43763 5.28125 3.332 5.32303 3.24711 5.40659C3.16207 5.49016 3.11956 5.59421 3.11956 5.71875C3.11956 5.84329 3.16207 5.94734 3.24711 6.03091C3.332 6.11447 3.43763 6.15625 3.564 6.15625H5.34178C5.4683 6.15625 5.574 6.11447 5.65889 6.03091C5.74378 5.94734 5.78622 5.84329 5.78622 5.71875ZM14.8804 5.71875C14.8804 5.59421 14.8379 5.49016 14.7529 5.40659C14.668 5.32303 14.5624 5.28125 14.436 5.28125H12.6411C12.5146 5.28125 12.4117 5.32303 12.3324 5.40659C12.2533 5.49016 12.2138 5.59421 12.2138 5.71875C12.2138 5.84329 12.2562 5.94734 12.3411 6.03091C12.426 6.11447 12.5317 6.15625 12.6582 6.15625H14.436C14.5624 6.15625 14.668 6.11447 14.7529 6.03091C14.8379 5.94734 14.8804 5.84329 14.8804 5.71875ZM2.436 15.125H1.88889H7.05133H2.436ZM11.4958 15.125H10.9487H16.1111H11.4958Z" fill="white"/>
</svg>
