<svg width="18" height="18" viewBox="0 0 18 18" fill="none" xmlns="http://www.w3.org/2000/svg">
<path d="M15.2378 3.24034C14.0905 2.71393 12.8602 2.32609 11.5739 2.10396C11.5505 2.09967 11.5271 2.11039 11.515 2.13181C11.3568 2.41322 11.1815 2.78035 11.0588 3.06891C9.6753 2.86178 8.29889 2.86178 6.94374 3.06891C6.82099 2.77393 6.63936 2.41322 6.48043 2.13181C6.46836 2.1111 6.44496 2.10039 6.42154 2.10396C5.13593 2.32538 3.90567 2.71322 2.7577 3.24034C2.74776 3.24462 2.73924 3.25177 2.73359 3.26105C0.400044 6.74732 -0.239213 10.1479 0.0743851 13.5063C0.075804 13.5227 0.0850274 13.5385 0.0977985 13.5485C1.63741 14.6791 3.12878 15.3655 4.59246 15.8205C4.61588 15.8276 4.6407 15.8191 4.65561 15.7998C5.00184 15.327 5.31048 14.8284 5.57511 14.3041C5.59072 14.2734 5.57582 14.237 5.5439 14.2249C5.05435 14.0391 4.5882 13.8127 4.1398 13.5556C4.10433 13.5349 4.10149 13.4842 4.13412 13.4599C4.22848 13.3892 4.32286 13.3156 4.41297 13.2413C4.42927 13.2278 4.45198 13.2249 4.47115 13.2335C7.41696 14.5784 10.6062 14.5784 13.5172 13.2335C13.5364 13.2242 13.5591 13.227 13.5761 13.2406C13.6662 13.3149 13.7606 13.3892 13.8557 13.4599C13.8883 13.4842 13.8862 13.5349 13.8507 13.5556C13.4023 13.8177 12.9361 14.0391 12.4459 14.2241C12.414 14.2363 12.3998 14.2734 12.4154 14.3041C12.6857 14.8277 12.9943 15.3262 13.3342 15.7991C13.3484 15.8191 13.3739 15.8276 13.3973 15.8205C14.8681 15.3655 16.3595 14.6791 17.8991 13.5485C17.9126 13.5385 17.9211 13.5235 17.9225 13.507C18.2978 9.62433 17.2939 6.25164 15.2612 3.26176C15.2562 3.25177 15.2477 3.24462 15.2378 3.24034ZM6.01502 11.4614C5.12812 11.4614 4.39735 10.6472 4.39735 9.6472C4.39735 8.64723 5.11395 7.833 6.01502 7.833C6.92315 7.833 7.64686 8.65438 7.63266 9.6472C7.63266 10.6472 6.91606 11.4614 6.01502 11.4614ZM11.9961 11.4614C11.1092 11.4614 10.3784 10.6472 10.3784 9.6472C10.3784 8.64723 11.095 7.833 11.9961 7.833C12.9042 7.833 13.6279 8.65438 13.6137 9.6472C13.6137 10.6472 12.9042 11.4614 11.9961 11.4614Z" fill="white"/>
</svg>
