<svg width="18" height="18" viewBox="0 0 18 18" fill="none" xmlns="http://www.w3.org/2000/svg">
<path d="M2.52232 16C2.09691 16 1.73684 15.8483 1.44211 15.545C1.14737 15.2417 1 14.8711 1 14.4333V4.56672C1 4.12891 1.14737 3.75833 1.44211 3.455C1.73684 3.15167 2.09691 3 2.52232 3H15.4777C15.9031 3 16.2632 3.15167 16.5579 3.455C16.8526 3.75833 17 4.12891 17 4.56672V14.4333C17 14.8711 16.8526 15.2417 16.5579 15.545C16.2632 15.8483 15.9031 16 15.4777 16H2.52232ZM2.52232 14.7H15.4777C15.5425 14.7 15.6019 14.6722 15.6558 14.6166C15.7098 14.5611 15.7368 14.5 15.7368 14.4333V4.56672C15.7368 4.49998 15.7098 4.43888 15.6558 4.38342C15.6019 4.32781 15.5425 4.3 15.4777 4.3H2.52232C2.45747 4.3 2.39811 4.32781 2.34421 4.38342C2.29018 4.43888 2.26316 4.49998 2.26316 4.56672V14.4333C2.26316 14.5 2.29018 14.5611 2.34421 14.6166C2.39811 14.6722 2.45747 14.7 2.52232 14.7ZM4.04463 13.3499H13.9554C14.1346 13.3499 14.2847 13.2878 14.4057 13.1634C14.5265 13.0389 14.5869 12.8844 14.5869 12.7C14.5869 12.5155 14.5265 12.3611 14.4057 12.2367C14.2847 12.1122 14.1346 12.0499 13.9554 12.0499H4.04463C3.8654 12.0499 3.7153 12.1122 3.59432 12.2367C3.47347 12.3611 3.41305 12.5155 3.41305 12.7C3.41305 12.8844 3.47347 13.0389 3.59432 13.1634C3.7153 13.2878 3.8654 13.3499 4.04463 13.3499ZM4.04463 10.15H13.9554C14.1346 10.15 14.2847 10.0877 14.4057 9.96323C14.5265 9.83887 14.5869 9.68446 14.5869 9.5C14.5869 9.31554 14.5265 9.16113 14.4057 9.03677C14.2847 8.91226 14.1346 8.85 13.9554 8.85H4.04463C3.8654 8.85 3.7153 8.91226 3.59432 9.03677C3.47347 9.16113 3.41305 9.31554 3.41305 9.5C3.41305 9.68446 3.47347 9.83887 3.59432 9.96323C3.7153 10.0877 3.8654 10.15 4.04463 10.15ZM4.04463 6.95005H10.6842C10.8634 6.95005 11.0135 6.88779 11.1343 6.76328C11.2553 6.63892 11.3158 6.48451 11.3158 6.30005C11.3158 6.11559 11.2553 5.96111 11.1343 5.8366C11.0135 5.71223 10.8634 5.65005 10.6842 5.65005H4.04463C3.8654 5.65005 3.7153 5.71223 3.59432 5.8366C3.47347 5.96111 3.41305 6.11559 3.41305 6.30005C3.41305 6.48451 3.47347 6.63892 3.59432 6.76328C3.7153 6.88779 3.8654 6.95005 4.04463 6.95005Z" fill="#E3E3E3"/>
</svg>
