<svg width="18" height="18" viewBox="0 0 18 18" fill="none" xmlns="http://www.w3.org/2000/svg">
<path d="M4.78947 11.7669H13.2105C13.3898 11.7669 13.5398 11.7045 13.6606 11.5798C13.7816 11.4552 13.8421 11.3005 13.8421 11.1157C13.8421 10.931 13.7816 10.7763 13.6606 10.6517C13.5398 10.527 13.3898 10.4646 13.2105 10.4646H4.78947C4.61025 10.4646 4.46021 10.527 4.33937 10.6517C4.21839 10.7763 4.15789 10.931 4.15789 11.1157C4.15789 11.3005 4.21839 11.4552 4.33937 11.5798C4.46021 11.7045 4.61025 11.7669 4.78947 11.7669ZM4.78947 9.16237H13.2105C13.3898 9.16237 13.5398 9.10001 13.6606 8.97528C13.7816 8.8507 13.8421 8.69602 13.8421 8.51125C13.8421 8.32647 13.7816 8.17179 13.6606 8.04721C13.5398 7.92249 13.3898 7.86012 13.2105 7.86012H4.78947C4.61025 7.86012 4.46021 7.92249 4.33937 8.04721C4.21839 8.17179 4.15789 8.32647 4.15789 8.51125C4.15789 8.69602 4.21839 8.8507 4.33937 8.97528C4.46021 9.10001 4.61025 9.16237 4.78947 9.16237ZM4.78947 6.55787H13.2105C13.3898 6.55787 13.5398 6.49551 13.6606 6.37078C13.7816 6.2462 13.8421 6.09152 13.8421 5.90675C13.8421 5.72197 13.7816 5.5673 13.6606 5.44271C13.5398 5.31799 13.3898 5.25562 13.2105 5.25562H4.78947C4.61025 5.25562 4.46021 5.31799 4.33937 5.44271C4.21839 5.5673 4.15789 5.72197 4.15789 5.90675C4.15789 6.09152 4.21839 6.2462 4.33937 6.37078C4.46021 6.49551 4.61025 6.55787 4.78947 6.55787ZM2.52232 15.0225C2.09691 15.0225 1.73684 14.8706 1.44211 14.5667C1.14737 14.2628 1 13.8916 1 13.4531V3.56943C1 3.13086 1.14737 2.75965 1.44211 2.45579C1.73684 2.15193 2.09691 2 2.52232 2H15.4777C15.9031 2 16.2632 2.15193 16.5579 2.45579C16.8526 2.75965 17 3.13086 17 3.56943V16.1978C17 16.5495 16.8443 16.793 16.5328 16.9283C16.2213 17.0635 15.9457 17.0075 15.7061 16.7603L14.0202 15.0225H2.52232ZM14.5579 13.7202L15.7368 14.9224V3.56943C15.7368 3.50258 15.7098 3.44137 15.6558 3.38581C15.6019 3.3301 15.5425 3.30225 15.4777 3.30225H2.52232C2.45747 3.30225 2.39811 3.3301 2.34421 3.38581C2.29018 3.44137 2.26316 3.50258 2.26316 3.56943V13.4531C2.26316 13.5199 2.29018 13.5811 2.34421 13.6367C2.39811 13.6924 2.45747 13.7202 2.52232 13.7202H14.5579Z" fill="#E3E3E3"/>
</svg>
