<svg width="18" height="18" viewBox="0 0 18 18" fill="none" xmlns="http://www.w3.org/2000/svg">
<path d="M2.52232 16C2.10365 16 1.74526 15.8466 1.44716 15.5398C1.14905 15.233 1 14.8642 1 14.4333V12.0584C1 11.9161 1.03972 11.79 1.11916 11.6801C1.19846 11.57 1.30449 11.495 1.43726 11.455C1.80653 11.2783 2.10667 11.016 2.33768 10.668C2.5687 10.3199 2.68421 9.93044 2.68421 9.49957C2.68421 9.06869 2.5687 8.67941 2.33768 8.33173C2.10667 7.98391 1.80653 7.72167 1.43726 7.54502C1.30449 7.50501 1.19846 7.42997 1.11916 7.3199C1.03972 7.20998 1 7.08388 1 6.9416V4.56672C1 4.13584 1.14905 3.767 1.44716 3.4602C1.74526 3.1534 2.10365 3 2.52232 3H15.4777C15.8964 3 16.2547 3.1534 16.5528 3.4602C16.8509 3.767 17 4.13584 17 4.56672V6.9416C17 7.08388 16.9603 7.20998 16.8808 7.3199C16.8015 7.42997 16.6955 7.50501 16.5627 7.54502C16.1935 7.72167 15.8933 7.98398 15.6623 8.33195C15.4313 8.68006 15.3158 9.06956 15.3158 9.50043C15.3158 9.93131 15.4313 10.3206 15.6623 10.6683C15.8933 11.0161 16.1935 11.2783 16.5627 11.455C16.6955 11.495 16.8015 11.57 16.8808 11.6801C16.9603 11.79 17 11.9161 17 12.0584V14.4333C17 14.8642 16.8509 15.233 16.5528 15.5398C16.2547 15.8466 15.8964 16 15.4777 16H2.52232ZM2.52232 14.7H15.4777C15.5533 14.7 15.6154 14.675 15.664 14.625C15.7126 14.5751 15.7368 14.5111 15.7368 14.4333V12.49C15.2175 12.1722 14.807 11.7497 14.5053 11.2225C14.2035 10.6953 14.0526 10.1211 14.0526 9.5C14.0526 8.87889 14.2035 8.30472 14.5053 7.7775C14.807 7.25028 15.2175 6.82778 15.7368 6.51V4.56672C15.7368 4.48886 15.7126 4.42494 15.664 4.37497C15.6154 4.32499 15.5533 4.3 15.4777 4.3H2.52232C2.44667 4.3 2.38456 4.32499 2.336 4.37497C2.28744 4.42494 2.26316 4.48886 2.26316 4.56672V6.51C2.78246 6.82778 3.19298 7.25028 3.49474 7.7775C3.79649 8.30472 3.94737 8.87889 3.94737 9.5C3.94737 10.1211 3.79649 10.6953 3.49474 11.2225C3.19298 11.7497 2.78246 12.1722 2.26316 12.49V14.4333C2.26316 14.5111 2.28744 14.5751 2.336 14.625C2.38456 14.675 2.44667 14.7 2.52232 14.7ZM9.00021 13.5332C9.1793 13.5332 9.32926 13.4709 9.45011 13.3463C9.57109 13.2218 9.63158 13.0673 9.63158 12.883C9.63158 12.6987 9.57102 12.5444 9.44989 12.42C9.32877 12.2955 9.17874 12.2332 8.99979 12.2332C8.8207 12.2332 8.67074 12.2956 8.54989 12.4202C8.42891 12.5449 8.36842 12.6994 8.36842 12.8837C8.36842 13.0679 8.42898 13.2222 8.55011 13.3467C8.67123 13.4711 8.82126 13.5332 9.00021 13.5332ZM9.00021 10.15C9.1793 10.15 9.32926 10.0877 9.45011 9.96302C9.57109 9.83836 9.63158 9.68395 9.63158 9.49978C9.63158 9.31547 9.57102 9.16113 9.44989 9.03677C9.32877 8.91226 9.17874 8.85 8.99979 8.85C8.8207 8.85 8.67074 8.91233 8.54989 9.03698C8.42891 9.16164 8.36842 9.31605 8.36842 9.50022C8.36842 9.68453 8.42898 9.83887 8.55011 9.96323C8.67123 10.0877 8.82126 10.15 9.00021 10.15ZM9.00021 6.76675C9.1793 6.76675 9.32926 6.70442 9.45011 6.57977C9.57109 6.45511 9.63158 6.30063 9.63158 6.11632C9.63158 5.93215 9.57102 5.77781 9.44989 5.6533C9.32877 5.52893 9.17874 5.46675 8.99979 5.46675C8.8207 5.46675 8.67074 5.52908 8.54989 5.65373C8.42891 5.77824 8.36842 5.93266 8.36842 6.11697C8.36842 6.30128 8.42898 6.45562 8.55011 6.57998C8.67123 6.70449 8.82126 6.76675 9.00021 6.76675Z" fill="#E3E3E3"/>
</svg>
