<svg width="18" height="18" viewBox="0 0 18 18" fill="none" xmlns="http://www.w3.org/2000/svg">
<path d="M3.4462 16C3.04207 16 2.7 15.86 2.42 15.58C2.14 15.3 2 14.9579 2 14.5538V2.6C2 2.43 2.05753 2.28747 2.1726 2.1724C2.28767 2.05747 2.4302 2 2.6002 2C2.77033 2 2.9128 2.05747 3.0276 2.1724C3.14253 2.28747 3.2 2.43 3.2 2.6V14.5538C3.2 14.6154 3.22567 14.6718 3.277 14.723C3.3282 14.7743 3.3846 14.8 3.4462 14.8H15.4C15.57 14.8 15.7125 14.8575 15.8274 14.9726C15.9425 15.0877 16 15.2302 16 15.4002C16 15.5703 15.9425 15.7128 15.8274 15.8276C15.7125 15.9425 15.57 16 15.4 16H3.4462ZM5.4462 13.4C5.25007 13.4 5.08567 13.3337 4.953 13.201C4.8202 13.0682 4.7538 12.9037 4.7538 12.7076V7.5692C4.7538 7.37307 4.8202 7.20867 4.953 7.076C5.08567 6.94333 5.25007 6.877 5.4462 6.877H6.4308C6.6356 6.877 6.80733 6.94647 6.946 7.0854C7.08453 7.22433 7.1538 7.39653 7.1538 7.602V12.678C7.1538 12.8835 7.08453 13.0551 6.946 13.193C6.80733 13.331 6.6356 13.4 6.4308 13.4H5.4462ZM9.2462 13.4C9.05007 13.4 8.88567 13.3337 8.753 13.201C8.6202 13.0682 8.5538 12.9037 8.5538 12.7076V3.6C8.5538 3.39507 8.62313 3.22333 8.7618 3.0848C8.90033 2.94627 9.07207 2.877 9.277 2.877H10.2616C10.4577 2.877 10.6221 2.94333 10.7548 3.076C10.8875 3.20867 10.9538 3.37307 10.9538 3.5692V12.6768C10.9538 12.8817 10.8845 13.0535 10.746 13.192C10.6073 13.3307 10.4356 13.4 10.2308 13.4H9.2462ZM13.0462 13.4C12.8501 13.4 12.6856 13.3337 12.5528 13.201C12.4201 13.0682 12.3538 12.9037 12.3538 12.7076V10.8C12.3538 10.5951 12.4231 10.4233 12.5618 10.2848C12.7003 10.1463 12.8721 10.077 13.077 10.077H14.0614C14.2577 10.077 14.4221 10.1433 14.5548 10.276C14.6875 10.4087 14.7538 10.5731 14.7538 10.7692V12.6768C14.7538 12.8817 14.6845 13.0535 14.546 13.192C14.4073 13.3307 14.2356 13.4 14.0308 13.4H13.0462Z" fill="#E3E3E3"/>
</svg>
