<svg width="18" height="18" viewBox="0 0 18 18" fill="none" xmlns="http://www.w3.org/2000/svg">
<path d="M12.9658 16C12.7824 16 12.6225 15.933 12.4862 15.799C12.3501 15.6649 12.282 15.5076 12.282 15.3269V8.97638C12.282 8.79583 12.3501 8.63855 12.4862 8.50453C12.6225 8.37036 12.7824 8.30328 12.9658 8.30328H16.3162C16.4998 8.30328 16.6596 8.37036 16.7958 8.50453C16.9319 8.63855 17 8.79583 17 8.97638V15.3269C17 15.5076 16.9319 15.6649 16.7958 15.799C16.6596 15.933 16.4998 16 16.3162 16H12.9658ZM12.9658 14.4519H16.3162V9.85138H12.9658V14.4519ZM6.02556 16C5.89963 16 5.79407 15.958 5.70889 15.874C5.6237 15.79 5.58111 15.6859 5.58111 15.5618C5.58111 15.4377 5.6237 15.3339 5.70889 15.2503C5.79407 15.1668 5.89963 15.125 6.02556 15.125H7.66667V12.5H2.436C2.04104 12.5 1.70296 12.3616 1.42178 12.0848C1.14059 11.808 1 11.4752 1 11.0864V3.41356C1 3.02477 1.14059 2.69198 1.42178 2.41519C1.70296 2.1384 2.04104 2 2.436 2H13.7862C14.1812 2 14.5193 2.1384 14.8004 2.41519C15.0816 2.69198 15.2222 3.02477 15.2222 3.41356V6.11578C15.2222 6.23974 15.1796 6.34365 15.0942 6.4275C15.0089 6.51135 14.9032 6.55328 14.7771 6.55328C14.651 6.55328 14.5456 6.51135 14.4607 6.4275C14.3758 6.34365 14.3333 6.23974 14.3333 6.11578V3.41356C14.3333 3.2565 14.2821 3.12744 14.1796 3.02637C14.0769 2.92546 13.9458 2.875 13.7862 2.875H2.436C2.27644 2.875 2.14533 2.92546 2.04267 3.02637C1.94015 3.12744 1.88889 3.2565 1.88889 3.41356V11.0864C1.88889 11.2435 1.94015 11.3726 2.04267 11.4736C2.14533 11.5745 2.27644 11.625 2.436 11.625H10.0598C10.1857 11.625 10.2913 11.667 10.3764 11.751C10.4616 11.835 10.5042 11.9391 10.5042 12.0632C10.5042 12.1873 10.4616 12.2911 10.3764 12.3747C10.2913 12.4582 10.1857 12.5 10.0598 12.5H8.55556V15.125H10.1967C10.3226 15.125 10.4281 15.167 10.5133 15.251C10.5985 15.335 10.6411 15.4391 10.6411 15.5632C10.6411 15.6873 10.5985 15.7911 10.5133 15.8747C10.4281 15.9582 10.3226 16 10.1967 16H6.02556ZM8.11111 8.66356L9.33956 9.62584C9.4117 9.6887 9.48281 9.69694 9.55289 9.65056C9.62311 9.60419 9.64341 9.54046 9.61378 9.45937L9.16067 7.90297L10.4598 6.86303C10.5224 6.81257 10.539 6.74833 10.5093 6.67031C10.4797 6.59229 10.4225 6.55328 10.3378 6.55328H8.77444L8.276 5.11609C8.25037 5.03443 8.19541 4.99359 8.11111 4.99359C8.02681 4.99359 7.97185 5.03443 7.94622 5.11609L7.44778 6.55328H5.88444C5.7997 6.55328 5.74252 6.59229 5.71289 6.67031C5.68326 6.74833 5.69978 6.81257 5.76244 6.86303L7.06156 7.90297L6.60844 9.45937C6.57881 9.54046 6.59911 9.60419 6.66933 9.65056C6.73941 9.69694 6.81052 9.6887 6.88267 9.62584L8.11111 8.66356Z" fill="white"/>
</svg>
