<svg width="18" height="18" viewBox="0 0 18 18" fill="none" xmlns="http://www.w3.org/2000/svg">
<path d="M15.3128 5.5496C15.8912 6.60756 16.1936 7.79425 16.192 9C16.1923 10.2586 15.8622 11.4952 15.2346 12.5862C14.6071 13.6772 13.7041 14.5843 12.616 15.2168L14.8128 8.8656C15.2232 7.84 15.36 7.0184 15.36 6.2904C15.3603 6.04271 15.3445 5.79525 15.3128 5.5496ZM9.992 5.6192C10.2664 5.60571 10.5401 5.58222 10.8128 5.5488C11.2008 5.4984 11.1552 4.9288 10.768 4.9496C10.768 4.9496 9.5976 5.0392 8.848 5.0392C8.1384 5.0392 6.948 4.9392 6.948 4.9392C6.5584 4.92 6.508 5.5096 6.8992 5.5296C6.8992 5.5296 7.2584 5.5712 7.6496 5.5896L8.7688 8.66L7.1888 13.3792L4.5696 5.6C4.84434 5.58619 5.1186 5.56404 5.392 5.5336C5.7816 5.4832 5.736 4.9136 5.348 4.936C5.348 4.936 4.184 5.028 3.432 5.028C3.2984 5.028 3.14 5.0224 2.972 5.0176C4.2744 3.1 6.4896 1.8096 9 1.8096C10.8728 1.8096 12.5768 2.5248 13.8568 3.6976C13.8264 3.696 13.796 3.6912 13.7632 3.6912C13.0568 3.6912 12.5552 4.3072 12.5552 4.968C12.5552 5.5608 12.8968 6.0632 13.2616 6.6544C13.536 7.1352 13.8552 7.7504 13.8552 8.6392C13.8552 9.2496 13.6192 9.9688 13.3072 10.9584L12.5904 13.348L9.9904 5.608L9.992 5.6192ZM9 16.1888C8.31222 16.1895 7.62791 16.0914 6.968 15.8976L9.1256 9.6272L11.336 15.6848C11.3528 15.72 11.3696 15.7528 11.388 15.784C10.6206 16.0531 9.81322 16.1905 9 16.1904M1.808 9C1.80683 7.99156 2.01894 6.99428 2.4304 6.0736L5.86 15.4728C4.64517 14.8829 3.62089 13.9631 2.90431 12.8184C2.18774 11.6737 1.80782 10.3505 1.808 9ZM9 1C4.5896 1 1 4.5896 1 9C1 13.4104 4.5896 17 9 17C13.4104 17 17 13.4104 17 9C17 4.5896 13.4104 1 9 1Z" fill="white"/>
</svg>
