<svg width="730" height="466" viewBox="0 0 730 466" fill="none" xmlns="http://www.w3.org/2000/svg">
<path d="M224.708 12.5703L179.207 121.831H197.734V85.0486H255.225V121.831H277.022V166.789H255.225V203.845H197.734V166.789H116.266V125.918L165.312 12.5703H224.708Z" fill="#A05E2C"/>
<path d="M439.145 108.21C439.145 170.879 411.625 205.483 362.036 205.483C311.9 205.483 284.652 170.88 284.652 108.21C284.652 45.5415 311.9 10.9375 362.036 10.9375C411.625 10.9375 439.145 45.5415 439.145 108.21ZM344.323 108.21C344.323 148.263 348.412 162.976 362.036 162.976C375.388 162.976 379.474 148.263 379.474 108.21C379.474 67.8847 375.388 53.4426 362.036 53.4426C348.412 53.4426 344.323 67.8847 344.323 108.21Z" fill="#A05E2C"/>
<path d="M560.943 12.5703L515.441 121.831H533.967V85.0486H591.458V121.831H613.256V166.789H591.458V203.845H533.967V166.789H452.5V125.918L501.543 12.5703H560.943Z" fill="#A05E2C"/>
<path d="M323.087 422.613C344.752 422.613 362.314 416.009 362.314 407.863C362.314 399.717 344.752 393.113 323.087 393.113C301.422 393.113 283.859 399.717 283.859 407.863C283.859 416.009 301.422 422.613 323.087 422.613Z" fill="white" fill-opacity="0.1"/>
<path d="M408.384 422.613C430.048 422.613 447.611 416.009 447.611 407.863C447.611 399.717 430.048 393.113 408.384 393.113C386.719 393.113 369.156 399.717 369.156 407.863C369.156 416.009 386.719 422.613 408.384 422.613Z" fill="white" fill-opacity="0.1"/>
<path d="M729.131 319.771C729.131 319.771 566.128 345.062 541.847 276.269C518.422 209.897 517.773 157.945 502.766 144.828" stroke="#35484D" stroke-width="1.45805" stroke-miterlimit="10"/>
<path d="M0.109375 319.771C0.109375 319.771 163.389 345.062 187.67 276.269C211.095 209.897 211.744 157.945 226.752 144.828" stroke="#35484D" stroke-width="1.45805" stroke-miterlimit="10"/>
<path d="M405.08 343.836L398.339 388.917H383.42L376.668 343.836H405.08Z" fill="#2E3D40"/>
<path d="M398.362 343.836L391.622 388.917H383.42L376.668 343.836H398.362Z" fill="#35484D"/>
<path d="M396.385 415.741L421.752 409.362L399.285 387.91H383.484V395.302L396.385 415.741Z" fill="#2E3D40"/>
<path d="M402.718 324.526L383.91 327.551L382.752 327.738L374.389 329.081L374.131 328.064L359.809 272.037L370.802 270.576L371.959 270.425L387.064 268.427L393.548 267.562L402.718 324.526Z" fill="#2E3D40"/>
<path d="M396.094 324.524L377.286 327.55L376.129 327.736L374.131 328.063L359.809 272.036L370.802 270.575L371.959 270.423L387.064 268.426L396.094 324.524Z" fill="#35484D"/>
<path d="M374.08 334.58L404.617 329.662L403.433 322.312L372.897 327.23L374.08 334.58Z" fill="#2E3D40"/>
<path d="M406.081 336.78L401.431 337.283L375.334 340.111L374.527 332.704L400.625 329.877L405.275 329.375L406.081 336.78Z" fill="#2E3D40"/>
<path d="M400.638 329.88L374.539 332.707L375.341 340.114L401.44 337.287L400.638 329.88Z" fill="#35484D"/>
<path d="M375.379 346.812L406.207 344.285L405.599 336.865L374.771 339.392L375.379 346.812Z" fill="#2E3D40"/>
<path d="M421.754 409.361V414.87L396.387 415.74L421.754 409.361Z" fill="#35484D"/>
<path d="M391.127 395.343L389.96 395.449L384.902 338.008L382.751 327.739L370.801 270.577L371.957 270.426L383.909 327.552L386.058 337.832L391.127 395.343Z" fill="#2E3D40"/>
<path d="M349.176 343.836L342.435 388.917H327.506L320.766 343.836H349.176Z" fill="#2E3D40"/>
<path d="M343.721 343.836L336.981 388.917H327.506L320.766 343.836H343.721Z" fill="#35484D"/>
<path d="M329.465 415.741L304.098 409.362L327.345 387.713L342.367 387.91V395.302L329.465 415.741Z" fill="#2E3D40"/>
<path d="M366.478 272.037L351.899 329.081L346.373 328.193L344.563 327.901L343.417 327.714L323.559 324.526L332.612 268.31L332.728 267.562L355.357 270.565L356.525 270.716L366.478 272.037Z" fill="#2E3D40"/>
<path d="M360.73 272.037L346.373 328.193L344.563 327.901L343.417 327.715L323.559 324.526L332.612 268.311L349.61 270.565L350.778 270.716L360.73 272.037Z" fill="#35484D"/>
<path d="M352.928 327.223L351.748 334.571L321.211 329.653L322.39 322.305L343.828 325.763L344.973 325.938L352.928 327.223Z" fill="#2E3D40"/>
<path d="M351.319 332.704L350.525 340.111L345.325 339.549L319.777 336.78L320.571 329.375L346.12 332.142L351.319 332.704Z" fill="#2E3D40"/>
<path d="M346.12 332.142L345.325 339.549L319.777 336.78L320.571 329.375L346.12 332.142Z" fill="#35484D"/>
<path d="M351.042 339.429L320.215 336.902L319.607 344.323L350.434 346.85L351.042 339.429Z" fill="#2E3D40"/>
<path d="M304.098 409.361V414.822L329.465 415.74L304.098 409.361Z" fill="#35484D"/>
<path d="M340.766 343.838H341.934L337.962 388.919H336.793L340.766 343.838Z" fill="#2E3D40"/>
<path d="M356.526 270.718L344.973 325.94L343.828 325.765L355.358 270.566L356.526 270.718Z" fill="#2E3D40"/>
<path d="M363.095 3.82031H361.27V32.1503H363.095V3.82031Z" fill="#7D9098"/>
<path d="M370.975 40.2302H354.547V38.7342C354.547 34.1982 358.224 30.5195 362.762 30.5195C367.298 30.5195 370.976 34.1967 370.976 38.7342V40.2302H370.975Z" fill="#35484D"/>
<path d="M441.245 172.259L449.453 184.1L491.033 155.275L482.824 143.434L441.245 172.259Z" fill="#35484D"/>
<path d="M392.879 176.462L439.669 187.839L443.849 172.574L390.18 149.871L392.879 176.462Z" fill="#35484D"/>
<path d="M433.84 179.759C433.84 184.436 437.632 188.229 442.31 188.229C446.987 188.229 450.78 184.436 450.78 179.759C450.78 175.081 446.987 171.289 442.31 171.289C437.632 171.289 433.84 175.081 433.84 179.759Z" fill="#7D9098"/>
<path d="M437.297 179.758C437.297 182.527 439.541 184.773 442.31 184.773C445.079 184.773 447.324 182.527 447.324 179.758C447.324 176.99 445.08 174.744 442.31 174.744C439.542 174.746 437.297 176.99 437.297 179.758Z" fill="#35484D"/>
<path d="M490.369 125.281L485.25 130.696C479.441 136.841 479.715 146.535 485.86 152.343C492.004 158.152 501.697 157.879 507.506 151.733L512.625 146.317L506.787 140.798L501.857 146.013C499.093 148.938 494.493 149.066 491.568 146.302C488.643 143.538 488.503 138.927 491.268 136.002L496.197 130.787L490.369 125.281Z" fill="#7D9098"/>
<path d="M241.822 143.401L233.613 155.242L275.193 184.067L283.401 172.226L241.822 143.401Z" fill="#35484D"/>
<path d="M331.773 176.464L284.981 187.841L280.801 172.577L334.47 150.52L331.773 176.464Z" fill="#35484D"/>
<path d="M391.419 47.703V117.481C391.419 125.098 385.24 131.277 377.623 131.277H348.265C340.648 131.277 334.469 125.098 334.469 117.481V51.0201C334.469 43.9996 339.737 38.0988 346.712 37.3173L371.257 34.5485L376.082 33.9988C384.258 33.0759 391.419 39.4782 391.419 47.703Z" fill="#586B70"/>
<path d="M380.905 47.7053V117.483C380.905 125.1 374.726 131.279 367.109 131.279H348.265C340.648 131.279 334.469 125.1 334.469 117.483V51.0224C334.469 44.0019 339.737 38.1011 346.712 37.3196L371.257 34.5508C376.805 36.2917 380.905 41.4663 380.905 47.7053Z" fill="#7D9098"/>
<path d="M373.119 138.384H351.312C350.56 138.384 349.949 137.773 349.949 137.021V132.543C349.949 131.791 350.56 131.18 351.312 131.18H373.119C373.871 131.18 374.482 131.791 374.482 132.543V137.021C374.482 137.773 373.871 138.384 373.119 138.384Z" fill="#35484D"/>
<path d="M371.556 145.103H352.869C352.169 145.103 351.602 144.536 351.602 143.836V139.167C351.602 138.468 352.169 137.9 352.869 137.9H371.556C372.256 137.9 372.825 138.468 372.825 139.167V143.836C372.825 144.536 372.256 145.103 371.556 145.103Z" fill="#2E3D40"/>
<path d="M372.701 151.673H351.721C350.982 151.673 350.383 151.074 350.383 150.335V145.807C350.383 145.068 350.982 144.469 351.721 144.469H372.701C373.44 144.469 374.04 145.068 374.04 145.807V150.335C374.04 151.074 373.44 151.673 372.701 151.673Z" fill="#35484D"/>
<path d="M402.543 167.295L399.751 226.395L399.693 227.563L398.057 262.119L397.6 271.897L396.876 287.142H329.6L328.875 271.897L328.419 262.119L326.503 221.617L326.445 220.449L323.932 167.296C323.466 157.565 330.416 149.387 339.154 149.387H387.32C396.059 149.387 403.011 157.563 402.543 167.295Z" fill="#586B70"/>
<path d="M387.941 167.295L385.149 226.395L385.09 227.563L383.454 262.119L382.998 271.897L382.273 287.142H329.6L328.875 271.897L328.419 262.119L326.503 221.617L326.445 220.449L323.932 167.296C323.466 157.565 330.416 149.387 339.154 149.387H372.717C381.457 149.387 388.407 157.563 387.941 167.295Z" fill="#7D9098"/>
<path d="M290.803 179.759C290.803 184.436 287.011 188.229 282.333 188.229C277.656 188.229 273.863 184.436 273.863 179.759C273.863 175.081 277.656 171.289 282.333 171.289C287.012 171.289 290.803 175.081 290.803 179.759Z" fill="#7D9098"/>
<path d="M282.342 184.067C284.721 184.067 286.649 182.139 286.649 179.76C286.649 177.381 284.721 175.453 282.342 175.453C279.963 175.453 278.035 177.381 278.035 179.76C278.035 182.139 279.963 184.067 282.342 184.067Z" fill="#35484D"/>
<path d="M234.279 125.281L239.398 130.696C245.207 136.841 244.933 146.535 238.789 152.343C232.645 158.152 222.952 157.879 217.143 151.733L212.023 146.317L217.861 140.798L222.791 146.013C225.556 148.938 230.156 149.066 233.081 146.302C236.005 143.538 236.145 138.927 233.381 136.002L228.451 130.787L234.279 125.281Z" fill="#7D9098"/>
<path d="M364.822 2.70177C364.822 4.19335 363.611 5.40354 362.12 5.40354C360.628 5.40354 359.418 4.19335 359.418 2.70177C359.418 1.21018 360.628 0 362.12 0C363.611 0 364.822 1.20872 364.822 2.70177Z" fill="#A05E2C"/>
<path d="M381.347 106.453C368.691 98.568 356.035 114.338 343.379 106.453C343.379 105.139 343.379 103.824 343.379 102.511C356.035 110.396 368.691 94.6255 381.347 102.511C381.347 103.824 381.347 105.139 381.347 106.453Z" fill="#35484D"/>
<path d="M359.057 86.4566C364.304 81.2101 364.304 72.7039 359.057 67.4575C353.811 62.211 345.305 62.211 340.058 67.4575C334.812 72.7039 334.812 81.2101 340.058 86.4566C345.305 91.703 353.811 91.703 359.057 86.4566Z" fill="#586B70"/>
<path d="M388.63 80.0761C390.341 72.8568 385.876 65.6168 378.657 63.905C371.438 62.1933 364.198 66.6581 362.486 73.8774C360.774 81.0968 365.239 88.3368 372.458 90.0486C379.678 91.7603 386.918 87.2955 388.63 80.0761Z" fill="#586B70"/>
<path d="M376.124 63.5215H349.438V90.373H376.124V63.5215Z" fill="#586B70"/>
<path d="M352.871 69.9473H346.738V84.1122H352.871V69.9473Z" fill="#A05E2C"/>
<path d="M352.213 71.043H347.395V83.0165H352.213V71.043Z" fill="#A05E2C"/>
<path d="M379.595 69.9473H373.461V84.1122H379.595V69.9473Z" fill="#A05E2C"/>
<path d="M340.839 67.741L339 65.274L354.1 53.0234L357.162 58.338L340.839 67.741Z" fill="#35484D"/>
<path d="M385.503 67.741L387.341 65.274L372.242 53.0234L369.18 58.338L385.503 67.741Z" fill="#35484D"/>
<path d="M388.406 171.875H337.199V204.002H388.406V171.875Z" fill="#586B70"/>
<path d="M383.436 174.988H342.16V200.883H383.436V174.988Z" fill="#35484D"/>
<path d="M379.69 180.195H345.914V181.827H379.69V180.195Z" fill="#A05E2C"/>
<path d="M374.404 184.691H351.199V186.323H374.404V184.691Z" fill="#A05E2C"/>
<path d="M376.957 188.701H348.648V190.333H376.957V188.701Z" fill="#A05E2C"/>
<path d="M399.75 226.395L399.692 227.563H371.655V213.346H346.83V221.617H326.504L326.445 220.449H345.662V212.178H372.823V226.395H399.75Z" fill="#35484D"/>
<path d="M346.247 222.885C347.43 222.885 348.389 221.926 348.389 220.743C348.389 219.561 347.43 218.602 346.247 218.602C345.064 218.602 344.105 219.561 344.105 220.743C344.105 221.926 345.064 222.885 346.247 222.885Z" fill="#35484D"/>
<path d="M347.71 212.566C347.71 213.373 347.056 214.027 346.25 214.027C345.444 214.027 344.789 213.374 344.789 212.566C344.789 211.76 345.442 211.105 346.25 211.105C347.058 211.105 347.71 211.76 347.71 212.566Z" fill="#35484D"/>
<path d="M373.703 212.566C373.703 213.373 373.05 214.027 372.242 214.027C371.436 214.027 370.781 213.374 370.781 212.566C370.781 211.76 371.434 211.105 372.242 211.105C373.049 211.107 373.703 211.76 373.703 212.566Z" fill="#35484D"/>
<path d="M373.703 226.586C373.703 227.393 373.05 228.046 372.242 228.046C371.436 228.046 370.781 227.393 370.781 226.586C370.781 225.78 371.434 225.127 372.242 225.127C373.049 225.125 373.703 225.78 373.703 226.586Z" fill="#35484D"/>
<path d="M378.885 71.043H374.066V83.0165H378.885V71.043Z" fill="#A05E2C"/>
<path d="M398.722 271.756H327.461V293.221H398.722V271.756Z" fill="#2E3D40"/>
<path d="M374.515 271.756H327.461V293.221H374.515V271.756Z" fill="#35484D"/>
<path d="M398.055 262.119L397.6 271.898H328.873L328.418 262.119H398.055Z" fill="#586B70"/>
<path d="M226.75 144.83C227.298 144.352 227.864 143.925 228.452 143.55C245.145 132.927 244.764 173.52 244.764 173.52" stroke="#35484D" stroke-width="1.45805" stroke-miterlimit="10"/>
<path d="M243 179.639H241.293V185.946H243V179.639Z" fill="#35484D"/>
<path d="M248.832 179.639H247.125V185.946H248.832V179.639Z" fill="#35484D"/>
<path d="M251.329 177.124V181.676H238.809V177.124C238.809 173.664 241.601 170.855 245.061 170.855C246.791 170.855 248.354 171.554 249.492 172.691C249.643 172.843 249.795 173.01 249.932 173.177C250.813 174.256 251.329 175.636 251.329 177.124Z" fill="#35484D"/>
<path d="M251.33 177.125V181.677H240.602V178.642C240.602 175.182 243.408 172.375 246.868 172.375C247.976 172.375 249.023 172.664 249.933 173.18C250.814 174.257 251.33 175.638 251.33 177.125Z" fill="#7D9098"/>
<path d="M502.77 144.83C502.222 144.352 501.656 143.925 501.069 143.55C484.376 132.927 484.755 173.52 484.755 173.52" stroke="#35484D" stroke-width="1.45805" stroke-miterlimit="10"/>
<path d="M478.191 177.124V181.676H490.71V177.124C490.71 173.664 487.918 170.855 484.458 170.855C482.727 170.855 481.166 171.554 480.027 172.691C479.875 172.843 479.724 173.01 479.587 173.177C478.708 174.256 478.191 175.636 478.191 177.124Z" fill="#35484D"/>
<path d="M478.191 177.125V181.677H488.92V178.642C488.92 175.182 486.112 172.375 482.653 172.375C481.545 172.375 480.498 172.664 479.588 173.18C478.708 174.257 478.191 175.638 478.191 177.125Z" fill="#7D9098"/>
<path d="M239.232 207.675L237.712 207.78L237.423 204.436L235.891 209.389L237.413 209.284L237.7 212.628L239.232 207.675Z" fill="#A05E2C"/>
<path d="M266.229 192.414L264.73 194.172L260.805 190.941L264.543 197.845L266.042 196.088L269.969 199.319L266.229 192.414Z" fill="#A05E2C"/>
<path d="M259.783 208.995L257.265 210.391L254.094 204.906L255.444 214.599L257.96 213.201L261.133 218.686L259.783 208.995Z" fill="#A05E2C"/>
<path d="M470.531 189.772L469.238 188.966L470.963 186.086L466.821 189.203L468.116 190.01L466.391 192.888L470.531 189.772Z" fill="#A05E2C"/>
<path d="M501.352 193.207L499.108 193.754L497.818 188.836L496.805 196.622L499.049 196.075L500.339 200.993L501.352 193.207Z" fill="#A05E2C"/>
<path d="M486.42 202.876L483.562 202.535L484.202 196.23L479.621 204.878L482.479 205.219L481.839 211.524L486.42 202.876Z" fill="#A05E2C"/>
</svg>
