<svg width="20" height="20" viewBox="0 0 20 20" fill="none" xmlns="http://www.w3.org/2000/svg">
<path d="M8.67775 16.68C8.6754 16.68 8.67267 16.68 8.67033 16.68C8.57345 16.678 8.48205 16.6366 8.41642 16.5655L1.71876 9.28273C1.60392 9.15773 1.59337 8.96945 1.69376 8.83234C1.79415 8.69562 1.97697 8.64875 2.13087 8.72062L8.26095 11.5909C8.31251 11.6152 8.37345 11.6034 8.4129 11.5624L17.7637 1.78937C17.8902 1.65695 18.0973 1.6425 18.241 1.75656C18.3848 1.87062 18.418 2.07531 18.3176 2.22883L9.01603 16.478C9.00275 16.4988 8.98712 16.5175 8.96994 16.5351L8.92892 16.5761C8.86212 16.6425 8.7715 16.68 8.67775 16.68Z" fill="#A05E2C"/>
</svg>
