<svg width="15" height="15" viewBox="0 0 15 15" fill="none" xmlns="http://www.w3.org/2000/svg">
<path d="M6.50831 12.508H6.50274C6.43009 12.5066 6.36153 12.4755 6.31231 12.4222L1.28907 6.9601C1.20294 6.86635 1.19503 6.72514 1.27032 6.6223C1.34562 6.51977 1.48272 6.48461 1.59815 6.53852L6.19571 8.69125C6.23439 8.70941 6.28009 8.70063 6.30968 8.66986L13.3228 1.34008C13.4177 1.24076 13.573 1.22992 13.6808 1.31547C13.7886 1.40101 13.8135 1.55453 13.7382 1.66967L6.76202 12.3566C6.75206 12.3721 6.74034 12.3862 6.72745 12.3994L6.69669 12.4301C6.64659 12.4799 6.57862 12.508 6.50831 12.508Z" fill="#0974E1"/>
</svg>
