<svg width="730" height="466" viewBox="0 0 730 466" fill="none" xmlns="http://www.w3.org/2000/svg">
<path d="M224.708 12.571L179.207 121.832H197.734V85.0494H255.225V121.832H277.022V166.789H255.225V203.846H197.734V166.789H116.266V125.919L165.312 12.571H224.708Z" fill="#0974E1"/>
<path d="M439.145 108.21C439.145 170.878 411.625 205.482 362.036 205.482C311.9 205.482 284.652 170.88 284.652 108.21C284.652 45.5412 311.9 10.9373 362.036 10.9373C411.625 10.9373 439.145 45.5412 439.145 108.21ZM344.323 108.21C344.323 148.262 348.412 162.976 362.036 162.976C375.388 162.976 379.474 148.262 379.474 108.21C379.474 67.8844 375.388 53.4424 362.036 53.4424C348.412 53.4424 344.323 67.8844 344.323 108.21Z" fill="#0974E1"/>
<path d="M560.943 12.571L515.441 121.832H533.967V85.0494H591.458V121.832H613.256V166.789H591.458V203.846H533.967V166.789H452.5V125.919L501.543 12.571H560.943Z" fill="#0974E1"/>
<path d="M323.087 422.611C344.752 422.611 362.314 416.008 362.314 407.862C362.314 399.716 344.752 393.112 323.087 393.112C301.422 393.112 283.859 399.716 283.859 407.862C283.859 416.008 301.422 422.611 323.087 422.611Z" fill="white" fill-opacity="0.1"/>
<path d="M408.384 422.611C430.048 422.611 447.611 416.008 447.611 407.862C447.611 399.716 430.048 393.112 408.384 393.112C386.719 393.112 369.156 399.716 369.156 407.862C369.156 416.008 386.719 422.611 408.384 422.611Z" fill="white" fill-opacity="0.1"/>
<path d="M729.131 319.772C729.131 319.772 566.128 345.063 541.847 276.27C518.422 209.898 517.773 157.946 502.766 144.829" stroke="#35484D" stroke-width="1.45805" stroke-miterlimit="10"/>
<path d="M0.109375 319.772C0.109375 319.772 163.389 345.063 187.67 276.27C211.095 209.898 211.744 157.946 226.752 144.829" stroke="#35484D" stroke-width="1.45805" stroke-miterlimit="10"/>
<path d="M405.08 343.837L398.339 388.918H383.42L376.668 343.837H405.08Z" fill="#2E3D40"/>
<path d="M398.362 343.837L391.622 388.918H383.42L376.668 343.837H398.362Z" fill="#35484D"/>
<path d="M396.385 415.741L421.752 409.362L399.285 387.909H383.484V395.302L396.385 415.741Z" fill="#2E3D40"/>
<path d="M402.718 324.526L383.91 327.551L382.752 327.738L374.389 329.081L374.131 328.064L359.809 272.037L370.802 270.576L371.959 270.425L387.064 268.427L393.548 267.562L402.718 324.526Z" fill="#2E3D40"/>
<path d="M396.094 324.525L377.286 327.551L376.129 327.737L374.131 328.064L359.809 272.037L370.802 270.576L371.959 270.424L387.064 268.427L396.094 324.525Z" fill="#35484D"/>
<path d="M374.08 334.58L404.617 329.662L403.433 322.312L372.897 327.23L374.08 334.58Z" fill="#2E3D40"/>
<path d="M406.081 336.78L401.431 337.283L375.334 340.111L374.527 332.704L400.625 329.877L405.275 329.375L406.081 336.78Z" fill="#2E3D40"/>
<path d="M400.638 329.88L374.539 332.707L375.341 340.114L401.44 337.287L400.638 329.88Z" fill="#35484D"/>
<path d="M375.379 346.813L406.207 344.286L405.599 336.866L374.771 339.393L375.379 346.813Z" fill="#2E3D40"/>
<path d="M421.754 409.361V414.87L396.387 415.74L421.754 409.361Z" fill="#35484D"/>
<path d="M391.127 395.342L389.96 395.448L384.902 338.007L382.751 327.738L370.801 270.576L371.957 270.425L383.909 327.551L386.058 337.831L391.127 395.342Z" fill="#2E3D40"/>
<path d="M349.176 343.837L342.435 388.918H327.506L320.766 343.837H349.176Z" fill="#2E3D40"/>
<path d="M343.721 343.837L336.981 388.918H327.506L320.766 343.837H343.721Z" fill="#35484D"/>
<path d="M329.465 415.741L304.098 409.362L327.345 387.713L342.367 387.91V395.302L329.465 415.741Z" fill="#2E3D40"/>
<path d="M366.478 272.037L351.899 329.081L346.373 328.193L344.563 327.901L343.417 327.714L323.559 324.526L332.612 268.31L332.728 267.562L355.357 270.565L356.525 270.716L366.478 272.037Z" fill="#2E3D40"/>
<path d="M360.73 272.037L346.373 328.193L344.563 327.901L343.417 327.715L323.559 324.526L332.612 268.311L349.61 270.565L350.778 270.716L360.73 272.037Z" fill="#35484D"/>
<path d="M352.928 327.224L351.748 334.572L321.211 329.654L322.39 322.306L343.828 325.764L344.973 325.939L352.928 327.224Z" fill="#2E3D40"/>
<path d="M351.319 332.704L350.525 340.111L345.325 339.549L319.777 336.78L320.571 329.375L346.12 332.142L351.319 332.704Z" fill="#2E3D40"/>
<path d="M346.12 332.142L345.325 339.549L319.777 336.78L320.571 329.375L346.12 332.142Z" fill="#35484D"/>
<path d="M351.042 339.428L320.215 336.901L319.607 344.322L350.434 346.849L351.042 339.428Z" fill="#2E3D40"/>
<path d="M304.098 409.361V414.822L329.465 415.74L304.098 409.361Z" fill="#35484D"/>
<path d="M340.766 343.837H341.934L337.962 388.918H336.793L340.766 343.837Z" fill="#2E3D40"/>
<path d="M356.526 270.717L344.973 325.939L343.828 325.764L355.358 270.565L356.526 270.717Z" fill="#2E3D40"/>
<path d="M363.095 3.82031H361.27V32.1503H363.095V3.82031Z" fill="#7D9098"/>
<path d="M370.975 40.2304H354.547V38.7344C354.547 34.1984 358.224 30.5198 362.762 30.5198C367.298 30.5198 370.976 34.197 370.976 38.7344V40.2304H370.975Z" fill="#35484D"/>
<path d="M441.245 172.259L449.453 184.1L491.033 155.275L482.824 143.434L441.245 172.259Z" fill="#35484D"/>
<path d="M392.879 176.463L439.669 187.84L443.849 172.575L390.18 149.872L392.879 176.463Z" fill="#35484D"/>
<path d="M433.84 179.759C433.84 184.436 437.632 188.229 442.31 188.229C446.987 188.229 450.78 184.436 450.78 179.759C450.78 175.081 446.987 171.289 442.31 171.289C437.632 171.289 433.84 175.081 433.84 179.759Z" fill="#7D9098"/>
<path d="M437.297 179.758C437.297 182.527 439.541 184.773 442.31 184.773C445.079 184.773 447.324 182.527 447.324 179.758C447.324 176.99 445.08 174.744 442.31 174.744C439.542 174.746 437.297 176.99 437.297 179.758Z" fill="#35484D"/>
<path d="M490.369 125.281L485.25 130.696C479.441 136.841 479.715 146.535 485.86 152.343C492.004 158.152 501.697 157.879 507.506 151.733L512.625 146.317L506.787 140.798L501.857 146.013C499.093 148.938 494.493 149.066 491.568 146.302C488.643 143.538 488.503 138.927 491.268 136.002L496.197 130.787L490.369 125.281Z" fill="#7D9098"/>
<path d="M241.822 143.4L233.613 155.241L275.193 184.066L283.401 172.225L241.822 143.4Z" fill="#35484D"/>
<path d="M331.773 176.463L284.981 187.84L280.801 172.576L334.47 150.519L331.773 176.463Z" fill="#35484D"/>
<path d="M391.419 47.704V117.482C391.419 125.099 385.24 131.278 377.623 131.278H348.265C340.648 131.278 334.469 125.099 334.469 117.482V51.0211C334.469 44.0006 339.737 38.0998 346.712 37.3183L371.257 34.5495L376.082 33.9998C384.258 33.0768 391.419 39.4791 391.419 47.704Z" fill="#586B70"/>
<path d="M380.905 47.7053V117.483C380.905 125.1 374.726 131.279 367.109 131.279H348.265C340.648 131.279 334.469 125.1 334.469 117.483V51.0224C334.469 44.0019 339.737 38.1011 346.712 37.3196L371.257 34.5508C376.805 36.2917 380.905 41.4663 380.905 47.7053Z" fill="#7D9098"/>
<path d="M373.119 138.385H351.312C350.56 138.385 349.949 137.774 349.949 137.022V132.544C349.949 131.792 350.56 131.181 351.312 131.181H373.119C373.871 131.181 374.482 131.792 374.482 132.544V137.022C374.482 137.774 373.871 138.385 373.119 138.385Z" fill="#35484D"/>
<path d="M371.556 145.103H352.869C352.169 145.103 351.602 144.536 351.602 143.836V139.167C351.602 138.468 352.169 137.9 352.869 137.9H371.556C372.256 137.9 372.825 138.468 372.825 139.167V143.836C372.825 144.536 372.256 145.103 371.556 145.103Z" fill="#2E3D40"/>
<path d="M372.701 151.674H351.721C350.982 151.674 350.383 151.075 350.383 150.335V145.808C350.383 145.069 350.982 144.47 351.721 144.47H372.701C373.44 144.47 374.04 145.069 374.04 145.808V150.335C374.04 151.075 373.44 151.674 372.701 151.674Z" fill="#35484D"/>
<path d="M402.543 167.295L399.751 226.395L399.693 227.563L398.057 262.119L397.6 271.897L396.876 287.142H329.6L328.875 271.897L328.419 262.119L326.503 221.617L326.445 220.449L323.932 167.296C323.466 157.565 330.416 149.387 339.154 149.387H387.32C396.059 149.387 403.011 157.563 402.543 167.295Z" fill="#586B70"/>
<path d="M387.941 167.295L385.149 226.395L385.09 227.563L383.454 262.119L382.998 271.897L382.273 287.142H329.6L328.875 271.897L328.419 262.119L326.503 221.617L326.445 220.449L323.932 167.296C323.466 157.565 330.416 149.387 339.154 149.387H372.717C381.457 149.387 388.407 157.563 387.941 167.295Z" fill="#7D9098"/>
<path d="M290.803 179.759C290.803 184.436 287.011 188.229 282.333 188.229C277.656 188.229 273.863 184.436 273.863 179.759C273.863 175.081 277.656 171.289 282.333 171.289C287.012 171.289 290.803 175.081 290.803 179.759Z" fill="#7D9098"/>
<path d="M282.342 184.066C284.721 184.066 286.649 182.138 286.649 179.759C286.649 177.38 284.721 175.452 282.342 175.452C279.963 175.452 278.035 177.38 278.035 179.759C278.035 182.138 279.963 184.066 282.342 184.066Z" fill="#35484D"/>
<path d="M234.279 125.281L239.398 130.696C245.207 136.841 244.933 146.535 238.789 152.343C232.645 158.152 222.952 157.879 217.143 151.733L212.023 146.317L217.861 140.798L222.791 146.013C225.556 148.938 230.156 149.066 233.081 146.302C236.005 143.538 236.145 138.927 233.381 136.002L228.451 130.787L234.279 125.281Z" fill="#7D9098"/>
<path d="M364.822 2.70177C364.822 4.19335 363.611 5.40354 362.12 5.40354C360.628 5.40354 359.418 4.19335 359.418 2.70177C359.418 1.21018 360.628 0 362.12 0C363.611 0 364.822 1.20872 364.822 2.70177Z" fill="#0974E1"/>
<path d="M381.347 106.454C368.691 98.569 356.035 114.339 343.379 106.454C343.379 105.14 343.379 103.825 343.379 102.512C356.035 110.397 368.691 94.6265 381.347 102.512C381.347 103.825 381.347 105.14 381.347 106.454Z" fill="#35484D"/>
<path d="M359.057 86.4566C364.304 81.2101 364.304 72.7039 359.057 67.4575C353.811 62.211 345.305 62.211 340.058 67.4575C334.812 72.7039 334.812 81.2101 340.058 86.4566C345.305 91.703 353.811 91.703 359.057 86.4566Z" fill="#586B70"/>
<path d="M388.63 80.0761C390.341 72.8568 385.876 65.6168 378.657 63.905C371.438 62.1933 364.198 66.6581 362.486 73.8774C360.774 81.0968 365.239 88.3368 372.458 90.0486C379.678 91.7603 386.918 87.2955 388.63 80.0761Z" fill="#586B70"/>
<path d="M376.124 63.5205H349.438V90.372H376.124V63.5205Z" fill="#586B70"/>
<path d="M352.871 69.9473H346.738V84.1122H352.871V69.9473Z" fill="#0974E1"/>
<path d="M352.213 71.042H347.395V83.0155H352.213V71.042Z" fill="#0974E1"/>
<path d="M379.595 69.9473H373.461V84.1122H379.595V69.9473Z" fill="#0974E1"/>
<path d="M340.839 67.742L339 65.275L354.1 53.0244L357.162 58.339L340.839 67.742Z" fill="#35484D"/>
<path d="M385.503 67.742L387.341 65.275L372.242 53.0244L369.18 58.339L385.503 67.742Z" fill="#35484D"/>
<path d="M388.406 171.874H337.199V204.001H388.406V171.874Z" fill="#586B70"/>
<path d="M383.436 174.989H342.16V200.884H383.436V174.989Z" fill="#35484D"/>
<path d="M379.69 180.195H345.914V181.827H379.69V180.195Z" fill="#0974E1"/>
<path d="M374.404 184.691H351.199V186.323H374.404V184.691Z" fill="#0974E1"/>
<path d="M376.957 188.701H348.648V190.333H376.957V188.701Z" fill="#0974E1"/>
<path d="M399.75 226.395L399.692 227.563H371.655V213.346H346.83V221.617H326.504L326.445 220.449H345.662V212.178H372.823V226.395H399.75Z" fill="#35484D"/>
<path d="M346.247 222.886C347.43 222.886 348.389 221.927 348.389 220.744C348.389 219.561 347.43 218.603 346.247 218.603C345.064 218.603 344.105 219.561 344.105 220.744C344.105 221.927 345.064 222.886 346.247 222.886Z" fill="#35484D"/>
<path d="M347.71 212.567C347.71 213.374 347.056 214.028 346.25 214.028C345.444 214.028 344.789 213.375 344.789 212.567C344.789 211.761 345.442 211.106 346.25 211.106C347.058 211.106 347.71 211.761 347.71 212.567Z" fill="#35484D"/>
<path d="M373.703 212.567C373.703 213.374 373.05 214.028 372.242 214.028C371.436 214.028 370.781 213.375 370.781 212.567C370.781 211.761 371.434 211.106 372.242 211.106C373.049 211.108 373.703 211.761 373.703 212.567Z" fill="#35484D"/>
<path d="M373.703 226.586C373.703 227.393 373.05 228.046 372.242 228.046C371.436 228.046 370.781 227.393 370.781 226.586C370.781 225.78 371.434 225.127 372.242 225.127C373.049 225.125 373.703 225.78 373.703 226.586Z" fill="#35484D"/>
<path d="M378.885 71.042H374.066V83.0155H378.885V71.042Z" fill="#0974E1"/>
<path d="M398.722 271.756H327.461V293.221H398.722V271.756Z" fill="#2E3D40"/>
<path d="M374.515 271.756H327.461V293.221H374.515V271.756Z" fill="#35484D"/>
<path d="M398.055 262.119L397.6 271.898H328.873L328.418 262.119H398.055Z" fill="#586B70"/>
<path d="M226.75 144.829C227.298 144.351 227.864 143.924 228.452 143.549C245.145 132.926 244.764 173.519 244.764 173.519" stroke="#35484D" stroke-width="1.45805" stroke-miterlimit="10"/>
<path d="M243 179.639H241.293V185.946H243V179.639Z" fill="#35484D"/>
<path d="M248.832 179.639H247.125V185.946H248.832V179.639Z" fill="#35484D"/>
<path d="M251.329 177.124V181.676H238.809V177.124C238.809 173.664 241.601 170.855 245.061 170.855C246.791 170.855 248.354 171.554 249.492 172.691C249.643 172.843 249.795 173.01 249.932 173.177C250.813 174.256 251.329 175.636 251.329 177.124Z" fill="#35484D"/>
<path d="M251.33 177.124V181.676H240.602V178.641C240.602 175.181 243.408 172.374 246.868 172.374C247.976 172.374 249.023 172.663 249.933 173.179C250.814 174.256 251.33 175.637 251.33 177.124Z" fill="#7D9098"/>
<path d="M502.77 144.829C502.222 144.351 501.656 143.924 501.069 143.549C484.376 132.926 484.755 173.519 484.755 173.519" stroke="#35484D" stroke-width="1.45805" stroke-miterlimit="10"/>
<path d="M478.191 177.124V181.676H490.71V177.124C490.71 173.664 487.918 170.855 484.458 170.855C482.727 170.855 481.166 171.554 480.027 172.691C479.875 172.843 479.724 173.01 479.587 173.177C478.708 174.256 478.191 175.636 478.191 177.124Z" fill="#35484D"/>
<path d="M478.191 177.124V181.676H488.92V178.641C488.92 175.181 486.112 172.374 482.653 172.374C481.545 172.374 480.498 172.663 479.588 173.179C478.708 174.256 478.191 175.637 478.191 177.124Z" fill="#7D9098"/>
<path d="M239.232 207.675L237.712 207.78L237.423 204.435L235.891 209.388L237.413 209.283L237.7 212.628L239.232 207.675Z" fill="#0974E1"/>
<path d="M266.229 192.414L264.73 194.172L260.805 190.941L264.543 197.845L266.042 196.088L269.969 199.319L266.229 192.414Z" fill="#0974E1"/>
<path d="M259.783 208.993L257.265 210.39L254.094 204.905L255.444 214.598L257.96 213.2L261.133 218.685L259.783 208.993Z" fill="#0974E1"/>
<path d="M470.531 189.772L469.238 188.965L470.963 186.086L466.821 189.203L468.116 190.009L466.391 192.887L470.531 189.772Z" fill="#0974E1"/>
<path d="M501.352 193.208L499.108 193.755L497.818 188.837L496.805 196.623L499.049 196.076L500.339 200.994L501.352 193.208Z" fill="#0974E1"/>
<path d="M486.42 202.875L483.562 202.534L484.202 196.229L479.621 204.877L482.479 205.218L481.839 211.523L486.42 202.875Z" fill="#0974E1"/>
</svg>
